<?xml version="1.0" encoding="utf-8" standalone="no"?>
<!DOCTYPE svg PUBLIC "-//W3C//DTD SVG 1.1//EN"
  "http://www.w3.org/Graphics/SVG/1.1/DTD/svg11.dtd">
<!-- Created with matplotlib (http://matplotlib.org/) -->
<svg height="345pt" version="1.1" viewBox="0 0 460 345" width="460pt" xmlns="http://www.w3.org/2000/svg" xmlns:xlink="http://www.w3.org/1999/xlink">
 <defs>
  <style type="text/css">
*{stroke-linecap:butt;stroke-linejoin:round;}
  </style>
 </defs>
 <g id="figure_1">
  <g id="patch_1">
   <path d="M 0 345.6 
L 460.8 345.6 
L 460.8 0 
L 0 0 
z
" style="fill:#ffffff;"/>
  </g>
  <g id="axes_1">
   <g id="patch_2">
    <path d="M 57.6 307.584 
L 414.72 307.584 
L 414.72 41.472 
L 57.6 41.472 
z
" style="fill:#ffffff;"/>
   </g>
   <g id="matplotlib.axis_1">
    <g id="xtick_1">
     <g id="line2d_1"/>
     <g id="text_1">
      <!-- −10 -->
      <defs>
       <path d="M 30.609375 35.75 
Q 31.59375 35.75 33.59375 35.859375 
Q 35.59375 35.984375 36.578125 35.984375 
Q 44.578125 35.984375 44.578125 31.390625 
Q 44.578125 29.59375 43.375 28.25 
Q 42.1875 26.90625 40.375 26.90625 
Q 39.796875 26.90625 38.625 27.09375 
Q 37.453125 27.296875 36.8125 27.296875 
Q 32.328125 27.296875 23.359375 26.96875 
Q 14.40625 26.65625 9.90625 26.65625 
Q 2.34375 26.65625 2.34375 31.15625 
Q 2.34375 34.234375 4.828125 35.015625 
Q 5.859375 35.359375 9.90625 35.359375 
Q 12.75 35.359375 18.484375 35.671875 
Q 24.21875 35.984375 27.046875 35.984375 
Q 27.640625 35.984375 28.828125 35.859375 
Q 30.03125 35.75 30.609375 35.75 
z
" id="ComicSansMS-2212"/>
       <path d="M 34.375 -0.046875 
L 24.65625 -0.046875 
L 14.984375 0 
Q 11.578125 0 10.203125 0.4375 
Q 7.71875 1.3125 7.71875 4.15625 
Q 7.71875 9.078125 15.375 9.078125 
L 17.71875 9.03125 
L 19.734375 8.9375 
Q 19.734375 11.28125 19.3125 15.859375 
Q 18.890625 20.453125 18.890625 22.75 
Q 18.890625 28.953125 20.015625 41.609375 
Q 21.09375 54.046875 21.046875 60.5 
Q 14.5 55.421875 12.703125 55.421875 
Q 10.75 55.421875 9.296875 56.875 
Q 7.859375 58.34375 7.859375 60.25 
Q 7.859375 62.546875 12.0625 65.828125 
Q 14.703125 67.671875 19.53125 71.78125 
Q 23.828125 76.125 27.734375 76.125 
Q 31 76.125 31 72.359375 
Q 31 71.234375 30.703125 69.015625 
Q 30.421875 66.796875 30.421875 65.671875 
Q 30.421875 64.0625 30.59375 60.78125 
Q 30.765625 57.515625 30.765625 55.90625 
Q 30.765625 50.34375 29.59375 39.296875 
Q 28.421875 28.265625 28.421875 22.75 
Q 28.421875 19.921875 28.8125 15.859375 
Q 29.203125 11.8125 29.25 9.234375 
L 34.375 9.328125 
Q 36.421875 9.328125 37.765625 7.984375 
Q 39.109375 6.640625 39.109375 4.640625 
Q 39.109375 2.59375 37.765625 1.265625 
Q 36.421875 -0.046875 34.375 -0.046875 
z
" id="ComicSansMS-31"/>
       <path d="M 29.828125 -1.90625 
Q 14.984375 -1.90625 8.15625 11.671875 
Q 2.984375 22.125 2.984375 38.875 
Q 2.984375 53.03125 9.71875 63.578125 
Q 17.671875 75.921875 31.34375 75.921875 
Q 44.1875 75.921875 51.375 64.984375 
Q 57.5625 55.515625 57.5625 41.890625 
Q 57.5625 20.015625 50.625 9.046875 
Q 43.703125 -1.90625 29.828125 -1.90625 
z
M 31.296875 66.5 
Q 22.21875 66.5 16.890625 57.28125 
Q 12.453125 49.5625 12.453125 39.65625 
Q 12.453125 23.578125 16.796875 15.515625 
Q 21.140625 7.46875 29.828125 7.46875 
Q 40.1875 7.46875 44.671875 19.28125 
Q 47.796875 27.484375 47.796875 40.09375 
Q 47.796875 53.328125 43.671875 59.90625 
Q 39.546875 66.5 31.296875 66.5 
z
" id="ComicSansMS-30"/>
      </defs>
      <g style="fill:#262626;" transform="translate(66.12804 185.88425)scale(0.1 -0.1)">
       <use xlink:href="#ComicSansMS-2212"/>
       <use x="48.046875" xlink:href="#ComicSansMS-31"/>
       <use x="93.066406" xlink:href="#ComicSansMS-30"/>
      </g>
     </g>
    </g>
    <g id="xtick_2">
     <g id="line2d_2"/>
     <g id="text_2">
      <!-- −9 -->
      <defs>
       <path d="M 38.28125 5.90625 
Q 34.71875 3.265625 26.859375 -0.4375 
Q 18.109375 -4.640625 14.703125 -4.640625 
Q 12.703125 -4.640625 11.40625 -3.171875 
Q 10.109375 -1.703125 10.109375 0.25 
Q 10.109375 3.125 13.421875 4.59375 
L 21.578125 7.375 
Q 29.15625 10.453125 33.546875 14.453125 
Q 37.9375 18.453125 41.546875 25.828125 
L 43.65625 30.03125 
Q 40.921875 28.46875 36.625 27.140625 
Q 32.328125 25.828125 29.640625 25.828125 
Q 20.40625 25.828125 13.671875 30.953125 
Q 5.46875 37.203125 5.46875 48.734375 
Q 5.46875 62.359375 13.875 69.1875 
Q 21.046875 75 32.71875 75 
Q 41.703125 75 48.828125 67.671875 
Q 56.34375 59.90625 56.390625 48.921875 
Q 56.453125 36.53125 51.8125 24.859375 
Q 46.828125 12.25 38.28125 5.90625 
z
M 31.34375 66.65625 
Q 23.140625 66.65625 19.015625 62.40625 
Q 14.890625 58.15625 14.84375 49.609375 
Q 14.84375 42.4375 19.875 38.484375 
Q 24.3125 35.015625 31.0625 35.015625 
Q 34.96875 35.015625 39.203125 37.359375 
Q 41.15625 38.421875 46.234375 42.1875 
Q 46.875 46.4375 46.875 48.921875 
Q 46.828125 55.03125 41.71875 60.84375 
Q 36.625 66.65625 31.34375 66.65625 
z
" id="ComicSansMS-39"/>
      </defs>
      <g style="fill:#262626;" transform="translate(84.611548 185.88425)scale(0.1 -0.1)">
       <use xlink:href="#ComicSansMS-2212"/>
       <use x="48.046875" xlink:href="#ComicSansMS-39"/>
      </g>
     </g>
    </g>
    <g id="xtick_3">
     <g id="line2d_3"/>
     <g id="text_3">
      <!-- −8 -->
      <defs>
       <path d="M 29.984375 -2.640625 
Q 19.671875 -2.640625 13.328125 1.859375 
Q 6.109375 6.9375 5.953125 16.75 
Q 5.765625 32.515625 17.046875 38.234375 
Q 8.34375 43.5 8.34375 53.21875 
Q 8.34375 62.453125 15.046875 68.5625 
Q 21.4375 74.421875 30.5625 74.515625 
Q 51.078125 74.703125 51.078125 54.25 
Q 51.078125 48.390625 48.734375 45.21875 
Q 46.828125 42.578125 41.359375 39.796875 
Q 48.640625 36.140625 51.5625 31.890625 
Q 54.984375 26.90625 54.984375 18.171875 
Q 54.984375 8.203125 47.609375 2.546875 
Q 40.765625 -2.640625 29.984375 -2.640625 
z
M 30.421875 65.765625 
Q 24.125 65.765625 20.796875 62.203125 
Q 17.828125 58.890625 17.875 53.21875 
Q 17.921875 46.390625 29.109375 43.5 
Q 34.96875 45.21875 37.5 46.921875 
Q 41.546875 49.65625 41.546875 54.25 
Q 41.546875 60.890625 38.578125 63.578125 
Q 36.03125 65.765625 30.421875 65.765625 
z
M 29.546875 34.859375 
Q 21.78125 31.25 19.1875 28.609375 
Q 15.140625 24.5625 15.375 17.1875 
Q 15.578125 11.078125 21 8.0625 
Q 24.953125 5.90625 29.984375 5.90625 
Q 38.578125 5.90625 42 9.96875 
Q 44.734375 13.1875 44.734375 19.734375 
Q 44.734375 26.125 39.75 30.03125 
Q 36.421875 32.71875 29.546875 34.859375 
z
" id="ComicSansMS-38"/>
      </defs>
      <g style="fill:#262626;" transform="translate(100.844276 185.88425)scale(0.1 -0.1)">
       <use xlink:href="#ComicSansMS-2212"/>
       <use x="48.046875" xlink:href="#ComicSansMS-38"/>
      </g>
     </g>
    </g>
    <g id="xtick_4">
     <g id="line2d_4"/>
     <g id="text_4">
      <!-- −7 -->
      <defs>
       <path d="M 56.34375 63.765625 
L 51.90625 58.59375 
Q 45.5625 51.171875 40.234375 40.625 
L 31.34375 21.140625 
Q 30.421875 19 27.25 9.859375 
Q 24.703125 2.640625 22.515625 -0.921875 
Q 21.140625 -3.21875 18.609375 -3.21875 
Q 16.65625 -3.21875 15.15625 -1.84375 
Q 13.671875 -0.484375 13.671875 1.421875 
Q 13.671875 3.265625 16.796875 10.9375 
L 27.78125 37.84375 
Q 35.0625 53.8125 42.71875 62.453125 
L 43.65625 63.484375 
L 19.140625 63.96875 
L 8.15625 64.265625 
Q 3.421875 64.703125 3.421875 68.953125 
Q 3.421875 71 4.78125 72.3125 
Q 6.15625 73.640625 8.203125 73.640625 
Q 14.359375 73.640625 26.6875 73.25 
Q 39.015625 72.859375 45.171875 72.859375 
L 54.109375 72.859375 
Q 59.28125 72.859375 59.28125 69.78125 
Q 59.28125 67.484375 56.34375 63.765625 
z
" id="ComicSansMS-37"/>
      </defs>
      <g style="fill:#262626;" transform="translate(117.077003 185.88425)scale(0.1 -0.1)">
       <use xlink:href="#ComicSansMS-2212"/>
       <use x="48.046875" xlink:href="#ComicSansMS-37"/>
      </g>
     </g>
    </g>
    <g id="xtick_5">
     <g id="line2d_5"/>
     <g id="text_5">
      <!-- −6 -->
      <defs>
       <path d="M 29.15625 -3.515625 
Q 16.40625 -3.515625 10.40625 5.8125 
Q 5.421875 13.484375 5.421875 26.265625 
Q 5.421875 50.390625 25 68.109375 
L 29.59375 72.75 
Q 32.953125 75.984375 34.671875 75.984375 
Q 36.625 75.984375 38.078125 74.578125 
Q 39.546875 73.1875 39.59375 71.296875 
Q 39.703125 69.53125 34.625 64.5 
L 24.65625 54.78125 
Q 20.703125 50.78125 17.875 42.671875 
Q 22.125 44.625 25.296875 45.578125 
Q 28.46875 46.53125 30.515625 46.53125 
Q 41.9375 46.53125 48.046875 40.421875 
Q 54.15625 34.328125 54.15625 23.1875 
Q 54.15625 11.53125 47.5625 4.15625 
Q 40.671875 -3.515625 29.15625 -3.515625 
z
M 29.15625 36.578125 
Q 24.953125 36.578125 21.625 35.109375 
Q 20.359375 34.515625 15.234375 31.34375 
Q 14.9375 28.765625 14.9375 26.265625 
Q 14.9375 17.53125 17.875 12.015625 
Q 21.578125 4.984375 29.4375 4.984375 
Q 36.8125 4.984375 40.875 10.25 
Q 44.625 15.140625 44.625 23.1875 
Q 44.625 29.890625 40.765625 33.234375 
Q 36.921875 36.578125 29.15625 36.578125 
z
" id="ComicSansMS-36"/>
      </defs>
      <g style="fill:#262626;" transform="translate(133.30973 185.88425)scale(0.1 -0.1)">
       <use xlink:href="#ComicSansMS-2212"/>
       <use x="48.046875" xlink:href="#ComicSansMS-36"/>
      </g>
     </g>
    </g>
    <g id="xtick_6">
     <g id="line2d_6"/>
     <g id="text_6">
      <!-- −5 -->
      <defs>
       <path d="M 27.4375 -3.078125 
Q 13.578125 -3.078125 7.03125 7.171875 
Q 6.15625 8.59375 6.15625 9.90625 
Q 6.15625 11.8125 7.671875 13.203125 
Q 9.1875 14.59375 11.078125 14.59375 
Q 13.09375 14.59375 14.890625 12.453125 
Q 17.484375 9.328125 18.796875 8.453125 
Q 21.96875 6.296875 27.4375 6.296875 
Q 35.890625 6.296875 41.453125 12.75 
Q 46.78125 18.890625 46.78125 27.546875 
Q 46.78125 34.671875 44.4375 39.109375 
Q 41.40625 44.734375 35.109375 44.734375 
Q 29.890625 44.734375 26.5625 43.3125 
Q 23.921875 42.1875 21.234375 39.453125 
L 15.921875 33.640625 
Q 13.765625 31.453125 11.53125 31.453125 
Q 9.578125 31.453125 8.203125 32.84375 
Q 6.84375 34.234375 6.84375 36.1875 
Q 6.84375 37.15625 7.625 44.875 
Q 9.28125 60.25 9.28125 65.09375 
Q 9.28125 66.796875 8.421875 68.8125 
Q 7.5625 70.84375 7.5625 71.828125 
Q 7.5625 74.8125 12.703125 74.8125 
Q 13.671875 74.8125 15.640625 74.640625 
Q 17.625 74.46875 18.609375 74.46875 
Q 21.4375 74.46875 27.09375 74.65625 
Q 32.765625 74.859375 35.59375 74.859375 
Q 36.921875 74.859375 39.59375 74.75 
Q 42.28125 74.65625 43.609375 74.65625 
Q 44.53125 74.65625 46.28125 75.015625 
Q 48.046875 75.390625 48.921875 75.390625 
Q 50.828125 75.390625 52.296875 73.96875 
Q 53.765625 72.5625 53.765625 70.703125 
Q 53.765625 65.234375 42.1875 65.234375 
Q 40.671875 65.234375 38.375 65.328125 
Q 36.078125 65.4375 35.59375 65.4375 
L 27.34375 65.28125 
L 19.09375 65.046875 
Q 19.09375 62.84375 17.28125 48.78125 
Q 23.96875 54.109375 35.109375 54.109375 
Q 45.84375 54.109375 51.515625 45.703125 
Q 56.296875 38.578125 56.296875 27.546875 
Q 56.296875 14.359375 48.578125 5.8125 
Q 40.578125 -3.078125 27.4375 -3.078125 
z
" id="ComicSansMS-35"/>
      </defs>
      <g style="fill:#262626;" transform="translate(149.542457 185.88425)scale(0.1 -0.1)">
       <use xlink:href="#ComicSansMS-2212"/>
       <use x="48.046875" xlink:href="#ComicSansMS-35"/>
      </g>
     </g>
    </g>
    <g id="xtick_7">
     <g id="line2d_7"/>
     <g id="text_7">
      <!-- −4 -->
      <defs>
       <path d="M 47.078125 21.34375 
L 47.078125 3.265625 
Q 47.078125 -1.265625 42.625 -1.265625 
Q 37.453125 -1.265625 37.453125 5.8125 
Q 37.453125 6.6875 37.546875 8.296875 
Q 37.640625 9.90625 37.640625 10.5 
L 37.59375 21.578125 
L 16.0625 22.125 
Q 9.375 22.125 6.78125 22.5625 
Q 2.34375 23.296875 2.34375 26.03125 
Q 2.34375 28.21875 5.03125 31.59375 
L 9.234375 36.578125 
L 33.25 71.625 
Q 36.53125 76.171875 41.546875 76.171875 
Q 47.078125 76.171875 47.078125 71.390625 
L 47.078125 30.8125 
Q 47.90625 30.859375 49.078125 30.859375 
Q 58.0625 30.859375 58.0625 26.03125 
Q 58.0625 22.515625 54.34375 21.578125 
Q 52.6875 21.140625 47.078125 21.34375 
z
M 37.59375 62.640625 
Q 24.5625 41.84375 17.234375 31.5 
L 37.59375 31 
z
" id="ComicSansMS-34"/>
      </defs>
      <g style="fill:#262626;" transform="translate(165.775185 185.88425)scale(0.1 -0.1)">
       <use xlink:href="#ComicSansMS-2212"/>
       <use x="48.046875" xlink:href="#ComicSansMS-34"/>
      </g>
     </g>
    </g>
    <g id="xtick_8">
     <g id="line2d_8"/>
     <g id="text_8">
      <!-- −3 -->
      <defs>
       <path d="M 29.546875 -2.25 
Q 22.171875 -2.25 16.3125 0.828125 
Q 9.71875 4.390625 7.421875 10.84375 
Q 7.125 11.71875 7.125 12.546875 
Q 7.125 14.5 8.609375 15.796875 
Q 10.109375 17.09375 12.0625 17.09375 
Q 14.015625 17.09375 15.4375 15.28125 
L 17.671875 11.921875 
Q 19.4375 9.515625 22.40625 8.3125 
Q 25.390625 7.125 29.546875 7.125 
Q 34.859375 7.125 38.875 10.453125 
Q 43.109375 13.96875 43.109375 19.046875 
Q 43.109375 26.421875 37.703125 30.8125 
Q 32.90625 34.625 25 35.453125 
Q 19.578125 35.984375 19.578125 39.84375 
Q 19.578125 42.71875 23.828125 44.234375 
L 35.5 47.125 
Q 38.875 48.34375 40.578125 50.40625 
Q 42.28125 52.484375 42.328125 55.46875 
Q 42.4375 59.765625 39.015625 62.40625 
Q 35.453125 65.140625 29 65.140625 
Q 25.6875 65.140625 22.5625 63.53125 
L 17.046875 60.0625 
Q 15.4375 59.03125 14.453125 59.03125 
Q 12.5 59.03125 11.109375 60.515625 
Q 9.71875 62.015625 9.71875 63.921875 
Q 9.71875 67.78125 17.1875 71.34375 
Q 23.6875 74.515625 27.875 74.515625 
Q 38.375 74.515625 44.53125 69.875 
Q 51.125 64.890625 51.125 55.671875 
Q 51.125 44.1875 41.84375 40.53125 
Q 41.015625 40.1875 39.9375 39.84375 
Q 46.4375 37.453125 49.65625 32.6875 
Q 52.875 27.9375 52.875 20.796875 
Q 52.875 11.1875 46.09375 4.46875 
Q 39.3125 -2.25 29.546875 -2.25 
z
" id="ComicSansMS-33"/>
      </defs>
      <g style="fill:#262626;" transform="translate(182.007912 185.88425)scale(0.1 -0.1)">
       <use xlink:href="#ComicSansMS-2212"/>
       <use x="48.046875" xlink:href="#ComicSansMS-33"/>
      </g>
     </g>
    </g>
    <g id="xtick_9">
     <g id="line2d_9"/>
     <g id="text_9">
      <!-- −2 -->
      <defs>
       <path d="M 49.21875 -0.09375 
Q 48 -0.09375 45.78125 0.65625 
Q 43.5625 1.421875 42.390625 1.421875 
Q 39.890625 1.421875 34.90625 1.125 
Q 29.9375 0.828125 27.390625 0.828125 
Q 25.484375 0.828125 21.75 0.34375 
Q 18.015625 -0.140625 16.109375 -0.140625 
Q 15.578125 -0.140625 14.546875 0.046875 
Q 13.53125 0.25 12.984375 0.25 
Q 9.625 0.25 8.59375 3.515625 
Q 8.015625 5.21875 8.015625 9.375 
Q 8.015625 20.75 14.203125 27.6875 
Q 17.046875 30.859375 29.5 39.40625 
Q 36.46875 44.1875 38.8125 46.875 
Q 43.015625 51.5625 43.015625 57.859375 
Q 43.015625 60.984375 38.96875 63.421875 
Q 35.40625 65.625 31.984375 65.625 
Q 27.484375 65.625 23.4375 63.03125 
L 16.453125 57.5625 
Q 14.359375 55.90625 13.09375 55.90625 
Q 8.0625 55.90625 8.0625 59.90625 
Q 8.0625 62.203125 9.90625 63.875 
Q 15.625 69.234375 19.828125 71.625 
Q 25.734375 75 31.984375 75 
Q 39.890625 75 46.09375 70.703125 
Q 53.03125 65.875 53.03125 58.296875 
Q 53.03125 53.328125 51.609375 49.125 
Q 50.203125 44.921875 47.3125 41.453125 
Q 43.65625 37.0625 34.90625 31.640625 
Q 25.734375 25.875 22.859375 22.90625 
Q 17.4375 17.28125 17.53125 9.28125 
L 27.59375 10.203125 
Q 37.9375 10.796875 42.390625 10.796875 
Q 46.09375 10.796875 49.421875 9.515625 
Q 53.8125 7.8125 53.8125 4.78125 
Q 53.8125 2.875 52.484375 1.390625 
Q 51.171875 -0.09375 49.21875 -0.09375 
z
" id="ComicSansMS-32"/>
      </defs>
      <g style="fill:#262626;" transform="translate(198.240639 185.88425)scale(0.1 -0.1)">
       <use xlink:href="#ComicSansMS-2212"/>
       <use x="48.046875" xlink:href="#ComicSansMS-32"/>
      </g>
     </g>
    </g>
    <g id="xtick_10">
     <g id="line2d_10"/>
     <g id="text_10">
      <!-- −1 -->
      <g style="fill:#262626;" transform="translate(215.274148 185.88425)scale(0.1 -0.1)">
       <use xlink:href="#ComicSansMS-2212"/>
       <use x="48.046875" xlink:href="#ComicSansMS-31"/>
      </g>
     </g>
    </g>
    <g id="xtick_11">
     <g id="line2d_11"/>
     <g id="text_11">
      <!-- 0 -->
      <g style="fill:#262626;" transform="translate(233.108438 185.88425)scale(0.1 -0.1)">
       <use xlink:href="#ComicSansMS-30"/>
      </g>
     </g>
    </g>
    <g id="xtick_12">
     <g id="line2d_12"/>
     <g id="text_12">
      <!-- 1 -->
      <g style="fill:#262626;" transform="translate(250.141946 185.88425)scale(0.1 -0.1)">
       <use xlink:href="#ComicSansMS-31"/>
      </g>
     </g>
    </g>
    <g id="xtick_13">
     <g id="line2d_13"/>
     <g id="text_13">
      <!-- 2 -->
      <g style="fill:#262626;" transform="translate(265.573892 185.88425)scale(0.1 -0.1)">
       <use xlink:href="#ComicSansMS-32"/>
      </g>
     </g>
    </g>
    <g id="xtick_14">
     <g id="line2d_14"/>
     <g id="text_14">
      <!-- 3 -->
      <g style="fill:#262626;" transform="translate(281.806619 185.88425)scale(0.1 -0.1)">
       <use xlink:href="#ComicSansMS-33"/>
      </g>
     </g>
    </g>
    <g id="xtick_15">
     <g id="line2d_15"/>
     <g id="text_15">
      <!-- 4 -->
      <g style="fill:#262626;" transform="translate(298.039347 185.88425)scale(0.1 -0.1)">
       <use xlink:href="#ComicSansMS-34"/>
      </g>
     </g>
    </g>
    <g id="xtick_16">
     <g id="line2d_16"/>
     <g id="text_16">
      <!-- 5 -->
      <g style="fill:#262626;" transform="translate(314.272074 185.88425)scale(0.1 -0.1)">
       <use xlink:href="#ComicSansMS-35"/>
      </g>
     </g>
    </g>
    <g id="xtick_17">
     <g id="line2d_17"/>
     <g id="text_17">
      <!-- 6 -->
      <g style="fill:#262626;" transform="translate(330.504801 185.88425)scale(0.1 -0.1)">
       <use xlink:href="#ComicSansMS-36"/>
      </g>
     </g>
    </g>
    <g id="xtick_18">
     <g id="line2d_18"/>
     <g id="text_18">
      <!-- 7 -->
      <g style="fill:#262626;" transform="translate(346.737528 185.88425)scale(0.1 -0.1)">
       <use xlink:href="#ComicSansMS-37"/>
      </g>
     </g>
    </g>
    <g id="xtick_19">
     <g id="line2d_19"/>
     <g id="text_19">
      <!-- 8 -->
      <g style="fill:#262626;" transform="translate(362.970256 185.88425)scale(0.1 -0.1)">
       <use xlink:href="#ComicSansMS-38"/>
      </g>
     </g>
    </g>
    <g id="xtick_20">
     <g id="line2d_20"/>
     <g id="text_20">
      <!-- 9 -->
      <g style="fill:#262626;" transform="translate(379.202983 185.88425)scale(0.1 -0.1)">
       <use xlink:href="#ComicSansMS-39"/>
      </g>
     </g>
    </g>
    <g id="xtick_21">
     <g id="line2d_21"/>
     <g id="text_21">
      <!-- 10 -->
      <g style="fill:#262626;" transform="translate(393.184929 185.88425)scale(0.1 -0.1)">
       <use xlink:href="#ComicSansMS-31"/>
       <use x="45.019531" xlink:href="#ComicSansMS-30"/>
      </g>
     </g>
    </g>
   </g>
   <g id="matplotlib.axis_2">
    <g id="ytick_1">
     <g id="line2d_22"/>
     <g id="text_22">
      <!-- −10 -->
      <g style="fill:#262626;" transform="translate(217.250625 311.512125)scale(0.1 -0.1)">
       <use xlink:href="#ComicSansMS-2212"/>
       <use x="48.046875" xlink:href="#ComicSansMS-31"/>
       <use x="93.066406" xlink:href="#ComicSansMS-30"/>
      </g>
     </g>
    </g>
    <g id="ytick_2">
     <g id="line2d_23"/>
     <g id="text_23">
      <!-- −9 -->
      <g style="fill:#262626;" transform="translate(221.752187 298.206525)scale(0.1 -0.1)">
       <use xlink:href="#ComicSansMS-2212"/>
       <use x="48.046875" xlink:href="#ComicSansMS-39"/>
      </g>
     </g>
    </g>
    <g id="ytick_3">
     <g id="line2d_24"/>
     <g id="text_24">
      <!-- −8 -->
      <g style="fill:#262626;" transform="translate(221.752187 284.900925)scale(0.1 -0.1)">
       <use xlink:href="#ComicSansMS-2212"/>
       <use x="48.046875" xlink:href="#ComicSansMS-38"/>
      </g>
     </g>
    </g>
    <g id="ytick_4">
     <g id="line2d_25"/>
     <g id="text_25">
      <!-- −7 -->
      <g style="fill:#262626;" transform="translate(221.752187 271.595325)scale(0.1 -0.1)">
       <use xlink:href="#ComicSansMS-2212"/>
       <use x="48.046875" xlink:href="#ComicSansMS-37"/>
      </g>
     </g>
    </g>
    <g id="ytick_5">
     <g id="line2d_26"/>
     <g id="text_26">
      <!-- −6 -->
      <g style="fill:#262626;" transform="translate(221.752187 258.289725)scale(0.1 -0.1)">
       <use xlink:href="#ComicSansMS-2212"/>
       <use x="48.046875" xlink:href="#ComicSansMS-36"/>
      </g>
     </g>
    </g>
    <g id="ytick_6">
     <g id="line2d_27"/>
     <g id="text_27">
      <!-- −5 -->
      <g style="fill:#262626;" transform="translate(221.752187 244.984125)scale(0.1 -0.1)">
       <use xlink:href="#ComicSansMS-2212"/>
       <use x="48.046875" xlink:href="#ComicSansMS-35"/>
      </g>
     </g>
    </g>
    <g id="ytick_7">
     <g id="line2d_28"/>
     <g id="text_28">
      <!-- −4 -->
      <g style="fill:#262626;" transform="translate(221.752187 231.678525)scale(0.1 -0.1)">
       <use xlink:href="#ComicSansMS-2212"/>
       <use x="48.046875" xlink:href="#ComicSansMS-34"/>
      </g>
     </g>
    </g>
    <g id="ytick_8">
     <g id="line2d_29"/>
     <g id="text_29">
      <!-- −3 -->
      <g style="fill:#262626;" transform="translate(221.752187 218.372925)scale(0.1 -0.1)">
       <use xlink:href="#ComicSansMS-2212"/>
       <use x="48.046875" xlink:href="#ComicSansMS-33"/>
      </g>
     </g>
    </g>
    <g id="ytick_9">
     <g id="line2d_30"/>
     <g id="text_30">
      <!-- −2 -->
      <g style="fill:#262626;" transform="translate(221.752187 205.067325)scale(0.1 -0.1)">
       <use xlink:href="#ComicSansMS-2212"/>
       <use x="48.046875" xlink:href="#ComicSansMS-32"/>
      </g>
     </g>
    </g>
    <g id="ytick_10">
     <g id="line2d_31"/>
     <g id="text_31">
      <!-- −1 -->
      <g style="fill:#262626;" transform="translate(223.35375 191.761725)scale(0.1 -0.1)">
       <use xlink:href="#ComicSansMS-2212"/>
       <use x="48.046875" xlink:href="#ComicSansMS-31"/>
      </g>
     </g>
    </g>
    <g id="ytick_11">
     <g id="line2d_32"/>
     <g id="text_32">
      <!-- 0 -->
      <g style="fill:#262626;" transform="translate(226.556875 178.456125)scale(0.1 -0.1)">
       <use xlink:href="#ComicSansMS-30"/>
      </g>
     </g>
    </g>
    <g id="ytick_12">
     <g id="line2d_33"/>
     <g id="text_33">
      <!-- 1 -->
      <g style="fill:#262626;" transform="translate(228.158437 165.150525)scale(0.1 -0.1)">
       <use xlink:href="#ComicSansMS-31"/>
      </g>
     </g>
    </g>
    <g id="ytick_13">
     <g id="line2d_34"/>
     <g id="text_34">
      <!-- 2 -->
      <g style="fill:#262626;" transform="translate(226.556875 151.844925)scale(0.1 -0.1)">
       <use xlink:href="#ComicSansMS-32"/>
      </g>
     </g>
    </g>
    <g id="ytick_14">
     <g id="line2d_35"/>
     <g id="text_35">
      <!-- 3 -->
      <g style="fill:#262626;" transform="translate(226.556875 138.539325)scale(0.1 -0.1)">
       <use xlink:href="#ComicSansMS-33"/>
      </g>
     </g>
    </g>
    <g id="ytick_15">
     <g id="line2d_36"/>
     <g id="text_36">
      <!-- 4 -->
      <g style="fill:#262626;" transform="translate(226.556875 125.233725)scale(0.1 -0.1)">
       <use xlink:href="#ComicSansMS-34"/>
      </g>
     </g>
    </g>
    <g id="ytick_16">
     <g id="line2d_37"/>
     <g id="text_37">
      <!-- 5 -->
      <g style="fill:#262626;" transform="translate(226.556875 111.928125)scale(0.1 -0.1)">
       <use xlink:href="#ComicSansMS-35"/>
      </g>
     </g>
    </g>
    <g id="ytick_17">
     <g id="line2d_38"/>
     <g id="text_38">
      <!-- 6 -->
      <g style="fill:#262626;" transform="translate(226.556875 98.622525)scale(0.1 -0.1)">
       <use xlink:href="#ComicSansMS-36"/>
      </g>
     </g>
    </g>
    <g id="ytick_18">
     <g id="line2d_39"/>
     <g id="text_39">
      <!-- 7 -->
      <g style="fill:#262626;" transform="translate(226.556875 85.316925)scale(0.1 -0.1)">
       <use xlink:href="#ComicSansMS-37"/>
      </g>
     </g>
    </g>
    <g id="ytick_19">
     <g id="line2d_40"/>
     <g id="text_40">
      <!-- 8 -->
      <g style="fill:#262626;" transform="translate(226.556875 72.011325)scale(0.1 -0.1)">
       <use xlink:href="#ComicSansMS-38"/>
      </g>
     </g>
    </g>
    <g id="ytick_20">
     <g id="line2d_41"/>
     <g id="text_41">
      <!-- 9 -->
      <g style="fill:#262626;" transform="translate(226.556875 58.705725)scale(0.1 -0.1)">
       <use xlink:href="#ComicSansMS-39"/>
      </g>
     </g>
    </g>
    <g id="ytick_21">
     <g id="line2d_42"/>
     <g id="text_42">
      <!-- 10 -->
      <g style="fill:#262626;" transform="translate(222.055312 45.400125)scale(0.1 -0.1)">
       <use xlink:href="#ComicSansMS-31"/>
       <use x="45.019531" xlink:href="#ComicSansMS-30"/>
      </g>
     </g>
    </g>
   </g>
   <g id="PathCollection_1">
    <path clip-path="url(#p207bb210eb)" d="M 0 349.135534 
C 0.937635 349.135534 1.836992 348.763008 2.5 348.1 
C 3.163008 347.436992 3.535534 346.537635 3.535534 345.6 
C 3.535534 344.662365 3.163008 343.763008 2.5 343.1 
C 1.836992 342.436992 0.937635 342.064466 0 342.064466 
C -0.937635 342.064466 -1.836992 342.436992 -2.5 343.1 
C -3.163008 343.763008 -3.535534 344.662365 -3.535534 345.6 
C -3.535534 346.537635 -3.163008 347.436992 -2.5 348.1 
C -1.836992 348.763008 -0.937635 349.135534 0 349.135534 
z
" style="fill:none;stroke:#800080;"/>
   </g>
   <g id="PathCollection_2"/>
   <g id="PathCollection_3"/>
   <g id="line2d_43">
    <path clip-path="url(#p207bb210eb)" d="M 73.832727 307.584 
L 398.487273 41.472 
L 398.487273 41.472 
" style="fill:none;stroke:#ff0000;stroke-linecap:round;stroke-width:1.5;"/>
   </g>
   <g id="line2d_44">
    <path clip-path="url(#p207bb210eb)" d="M 73.832727 161.2224 
L 398.487273 161.2224 
L 398.487273 161.2224 
" style="fill:none;stroke:#0000ff;stroke-linecap:round;stroke-width:1.5;"/>
   </g>
   <g id="line2d_45">
    <path clip-path="url(#p207bb210eb)" d="M 73.832727 174.528 
L 398.487273 174.528 
L 398.487273 174.528 
" style="fill:none;stroke:#008000;stroke-linecap:round;stroke-width:1.5;"/>
   </g>
   <g id="patch_3">
    <path d="M 236.16 307.584 
L 236.16 41.472 
" style="fill:none;stroke:#cccccc;stroke-linecap:square;stroke-linejoin:miter;"/>
   </g>
   <g id="patch_4">
    <path d="M 414.72 307.584 
L 414.72 41.472 
" style="fill:none;"/>
   </g>
   <g id="patch_5">
    <path d="M 57.6 174.528 
L 414.72 174.528 
" style="fill:none;stroke:#cccccc;stroke-linecap:square;stroke-linejoin:miter;"/>
   </g>
   <g id="patch_6">
    <path d="M 57.6 41.472 
L 414.72 41.472 
" style="fill:none;"/>
   </g>
  </g>
 </g>
 <defs>
  <clipPath id="p207bb210eb">
   <rect height="266.112" width="357.12" x="57.6" y="41.472"/>
  </clipPath>
 </defs>
</svg>
