<?xml version="1.0" encoding="utf-8" standalone="no"?>
<!DOCTYPE svg PUBLIC "-//W3C//DTD SVG 1.1//EN"
  "http://www.w3.org/Graphics/SVG/1.1/DTD/svg11.dtd">
<!-- Created with matplotlib (http://matplotlib.org/) -->
<svg height="345pt" version="1.1" viewBox="0 0 460 345" width="460pt" xmlns="http://www.w3.org/2000/svg" xmlns:xlink="http://www.w3.org/1999/xlink">
 <defs>
  <style type="text/css">
*{stroke-linecap:butt;stroke-linejoin:round;}
  </style>
 </defs>
 <g id="figure_1">
  <g id="patch_1">
   <path d="M 0 345.6 
L 460.8 345.6 
L 460.8 0 
L 0 0 
z
" style="fill:#ffffff;"/>
  </g>
  <g id="axes_1">
   <g id="patch_2">
    <path d="M 57.6 307.584 
L 414.72 307.584 
L 414.72 41.472 
L 57.6 41.472 
z
" style="fill:#ffffff;"/>
   </g>
   <g id="matplotlib.axis_1">
    <g id="xtick_1">
     <g id="line2d_1"/>
     <g id="text_1">
      <!-- −10 -->
      <defs>
       <path d="M 30.609375 35.75 
Q 31.59375 35.75 33.59375 35.859375 
Q 35.59375 35.984375 36.578125 35.984375 
Q 44.578125 35.984375 44.578125 31.390625 
Q 44.578125 29.59375 43.375 28.25 
Q 42.1875 26.90625 40.375 26.90625 
Q 39.796875 26.90625 38.625 27.09375 
Q 37.453125 27.296875 36.8125 27.296875 
Q 32.328125 27.296875 23.359375 26.96875 
Q 14.40625 26.65625 9.90625 26.65625 
Q 2.34375 26.65625 2.34375 31.15625 
Q 2.34375 34.234375 4.828125 35.015625 
Q 5.859375 35.359375 9.90625 35.359375 
Q 12.75 35.359375 18.484375 35.671875 
Q 24.21875 35.984375 27.046875 35.984375 
Q 27.640625 35.984375 28.828125 35.859375 
Q 30.03125 35.75 30.609375 35.75 
z
" id="ComicSansMS-2212"/>
       <path d="M 34.375 -0.046875 
L 24.65625 -0.046875 
L 14.984375 0 
Q 11.578125 0 10.203125 0.4375 
Q 7.71875 1.3125 7.71875 4.15625 
Q 7.71875 9.078125 15.375 9.078125 
L 17.71875 9.03125 
L 19.734375 8.9375 
Q 19.734375 11.28125 19.3125 15.859375 
Q 18.890625 20.453125 18.890625 22.75 
Q 18.890625 28.953125 20.015625 41.609375 
Q 21.09375 54.046875 21.046875 60.5 
Q 14.5 55.421875 12.703125 55.421875 
Q 10.75 55.421875 9.296875 56.875 
Q 7.859375 58.34375 7.859375 60.25 
Q 7.859375 62.546875 12.0625 65.828125 
Q 14.703125 67.671875 19.53125 71.78125 
Q 23.828125 76.125 27.734375 76.125 
Q 31 76.125 31 72.359375 
Q 31 71.234375 30.703125 69.015625 
Q 30.421875 66.796875 30.421875 65.671875 
Q 30.421875 64.0625 30.59375 60.78125 
Q 30.765625 57.515625 30.765625 55.90625 
Q 30.765625 50.34375 29.59375 39.296875 
Q 28.421875 28.265625 28.421875 22.75 
Q 28.421875 19.921875 28.8125 15.859375 
Q 29.203125 11.8125 29.25 9.234375 
L 34.375 9.328125 
Q 36.421875 9.328125 37.765625 7.984375 
Q 39.109375 6.640625 39.109375 4.640625 
Q 39.109375 2.59375 37.765625 1.265625 
Q 36.421875 -0.046875 34.375 -0.046875 
z
" id="ComicSansMS-31"/>
       <path d="M 29.828125 -1.90625 
Q 14.984375 -1.90625 8.15625 11.671875 
Q 2.984375 22.125 2.984375 38.875 
Q 2.984375 53.03125 9.71875 63.578125 
Q 17.671875 75.921875 31.34375 75.921875 
Q 44.1875 75.921875 51.375 64.984375 
Q 57.5625 55.515625 57.5625 41.890625 
Q 57.5625 20.015625 50.625 9.046875 
Q 43.703125 -1.90625 29.828125 -1.90625 
z
M 31.296875 66.5 
Q 22.21875 66.5 16.890625 57.28125 
Q 12.453125 49.5625 12.453125 39.65625 
Q 12.453125 23.578125 16.796875 15.515625 
Q 21.140625 7.46875 29.828125 7.46875 
Q 40.1875 7.46875 44.671875 19.28125 
Q 47.796875 27.484375 47.796875 40.09375 
Q 47.796875 53.328125 43.671875 59.90625 
Q 39.546875 66.5 31.296875 66.5 
z
" id="ComicSansMS-30"/>
      </defs>
      <g style="fill:#262626;" transform="translate(66.12804 185.88425)scale(0.1 -0.1)">
       <use xlink:href="#ComicSansMS-2212"/>
       <use x="48.046875" xlink:href="#ComicSansMS-31"/>
       <use x="93.066406" xlink:href="#ComicSansMS-30"/>
      </g>
     </g>
    </g>
    <g id="xtick_2">
     <g id="line2d_2"/>
     <g id="text_2">
      <!-- −9 -->
      <defs>
       <path d="M 38.28125 5.90625 
Q 34.71875 3.265625 26.859375 -0.4375 
Q 18.109375 -4.640625 14.703125 -4.640625 
Q 12.703125 -4.640625 11.40625 -3.171875 
Q 10.109375 -1.703125 10.109375 0.25 
Q 10.109375 3.125 13.421875 4.59375 
L 21.578125 7.375 
Q 29.15625 10.453125 33.546875 14.453125 
Q 37.9375 18.453125 41.546875 25.828125 
L 43.65625 30.03125 
Q 40.921875 28.46875 36.625 27.140625 
Q 32.328125 25.828125 29.640625 25.828125 
Q 20.40625 25.828125 13.671875 30.953125 
Q 5.46875 37.203125 5.46875 48.734375 
Q 5.46875 62.359375 13.875 69.1875 
Q 21.046875 75 32.71875 75 
Q 41.703125 75 48.828125 67.671875 
Q 56.34375 59.90625 56.390625 48.921875 
Q 56.453125 36.53125 51.8125 24.859375 
Q 46.828125 12.25 38.28125 5.90625 
z
M 31.34375 66.65625 
Q 23.140625 66.65625 19.015625 62.40625 
Q 14.890625 58.15625 14.84375 49.609375 
Q 14.84375 42.4375 19.875 38.484375 
Q 24.3125 35.015625 31.0625 35.015625 
Q 34.96875 35.015625 39.203125 37.359375 
Q 41.15625 38.421875 46.234375 42.1875 
Q 46.875 46.4375 46.875 48.921875 
Q 46.828125 55.03125 41.71875 60.84375 
Q 36.625 66.65625 31.34375 66.65625 
z
" id="ComicSansMS-39"/>
      </defs>
      <g style="fill:#262626;" transform="translate(84.611548 185.88425)scale(0.1 -0.1)">
       <use xlink:href="#ComicSansMS-2212"/>
       <use x="48.046875" xlink:href="#ComicSansMS-39"/>
      </g>
     </g>
    </g>
    <g id="xtick_3">
     <g id="line2d_3"/>
     <g id="text_3">
      <!-- −8 -->
      <defs>
       <path d="M 29.984375 -2.640625 
Q 19.671875 -2.640625 13.328125 1.859375 
Q 6.109375 6.9375 5.953125 16.75 
Q 5.765625 32.515625 17.046875 38.234375 
Q 8.34375 43.5 8.34375 53.21875 
Q 8.34375 62.453125 15.046875 68.5625 
Q 21.4375 74.421875 30.5625 74.515625 
Q 51.078125 74.703125 51.078125 54.25 
Q 51.078125 48.390625 48.734375 45.21875 
Q 46.828125 42.578125 41.359375 39.796875 
Q 48.640625 36.140625 51.5625 31.890625 
Q 54.984375 26.90625 54.984375 18.171875 
Q 54.984375 8.203125 47.609375 2.546875 
Q 40.765625 -2.640625 29.984375 -2.640625 
z
M 30.421875 65.765625 
Q 24.125 65.765625 20.796875 62.203125 
Q 17.828125 58.890625 17.875 53.21875 
Q 17.921875 46.390625 29.109375 43.5 
Q 34.96875 45.21875 37.5 46.921875 
Q 41.546875 49.65625 41.546875 54.25 
Q 41.546875 60.890625 38.578125 63.578125 
Q 36.03125 65.765625 30.421875 65.765625 
z
M 29.546875 34.859375 
Q 21.78125 31.25 19.1875 28.609375 
Q 15.140625 24.5625 15.375 17.1875 
Q 15.578125 11.078125 21 8.0625 
Q 24.953125 5.90625 29.984375 5.90625 
Q 38.578125 5.90625 42 9.96875 
Q 44.734375 13.1875 44.734375 19.734375 
Q 44.734375 26.125 39.75 30.03125 
Q 36.421875 32.71875 29.546875 34.859375 
z
" id="ComicSansMS-38"/>
      </defs>
      <g style="fill:#262626;" transform="translate(100.844276 185.88425)scale(0.1 -0.1)">
       <use xlink:href="#ComicSansMS-2212"/>
       <use x="48.046875" xlink:href="#ComicSansMS-38"/>
      </g>
     </g>
    </g>
    <g id="xtick_4">
     <g id="line2d_4"/>
     <g id="text_4">
      <!-- −7 -->
      <defs>
       <path d="M 56.34375 63.765625 
L 51.90625 58.59375 
Q 45.5625 51.171875 40.234375 40.625 
L 31.34375 21.140625 
Q 30.421875 19 27.25 9.859375 
Q 24.703125 2.640625 22.515625 -0.921875 
Q 21.140625 -3.21875 18.609375 -3.21875 
Q 16.65625 -3.21875 15.15625 -1.84375 
Q 13.671875 -0.484375 13.671875 1.421875 
Q 13.671875 3.265625 16.796875 10.9375 
L 27.78125 37.84375 
Q 35.0625 53.8125 42.71875 62.453125 
L 43.65625 63.484375 
L 19.140625 63.96875 
L 8.15625 64.265625 
Q 3.421875 64.703125 3.421875 68.953125 
Q 3.421875 71 4.78125 72.3125 
Q 6.15625 73.640625 8.203125 73.640625 
Q 14.359375 73.640625 26.6875 73.25 
Q 39.015625 72.859375 45.171875 72.859375 
L 54.109375 72.859375 
Q 59.28125 72.859375 59.28125 69.78125 
Q 59.28125 67.484375 56.34375 63.765625 
z
" id="ComicSansMS-37"/>
      </defs>
      <g style="fill:#262626;" transform="translate(117.077003 185.88425)scale(0.1 -0.1)">
       <use xlink:href="#ComicSansMS-2212"/>
       <use x="48.046875" xlink:href="#ComicSansMS-37"/>
      </g>
     </g>
    </g>
    <g id="xtick_5">
     <g id="line2d_5"/>
     <g id="text_5">
      <!-- −6 -->
      <defs>
       <path d="M 29.15625 -3.515625 
Q 16.40625 -3.515625 10.40625 5.8125 
Q 5.421875 13.484375 5.421875 26.265625 
Q 5.421875 50.390625 25 68.109375 
L 29.59375 72.75 
Q 32.953125 75.984375 34.671875 75.984375 
Q 36.625 75.984375 38.078125 74.578125 
Q 39.546875 73.1875 39.59375 71.296875 
Q 39.703125 69.53125 34.625 64.5 
L 24.65625 54.78125 
Q 20.703125 50.78125 17.875 42.671875 
Q 22.125 44.625 25.296875 45.578125 
Q 28.46875 46.53125 30.515625 46.53125 
Q 41.9375 46.53125 48.046875 40.421875 
Q 54.15625 34.328125 54.15625 23.1875 
Q 54.15625 11.53125 47.5625 4.15625 
Q 40.671875 -3.515625 29.15625 -3.515625 
z
M 29.15625 36.578125 
Q 24.953125 36.578125 21.625 35.109375 
Q 20.359375 34.515625 15.234375 31.34375 
Q 14.9375 28.765625 14.9375 26.265625 
Q 14.9375 17.53125 17.875 12.015625 
Q 21.578125 4.984375 29.4375 4.984375 
Q 36.8125 4.984375 40.875 10.25 
Q 44.625 15.140625 44.625 23.1875 
Q 44.625 29.890625 40.765625 33.234375 
Q 36.921875 36.578125 29.15625 36.578125 
z
" id="ComicSansMS-36"/>
      </defs>
      <g style="fill:#262626;" transform="translate(133.30973 185.88425)scale(0.1 -0.1)">
       <use xlink:href="#ComicSansMS-2212"/>
       <use x="48.046875" xlink:href="#ComicSansMS-36"/>
      </g>
     </g>
    </g>
    <g id="xtick_6">
     <g id="line2d_6"/>
     <g id="text_6">
      <!-- −5 -->
      <defs>
       <path d="M 27.4375 -3.078125 
Q 13.578125 -3.078125 7.03125 7.171875 
Q 6.15625 8.59375 6.15625 9.90625 
Q 6.15625 11.8125 7.671875 13.203125 
Q 9.1875 14.59375 11.078125 14.59375 
Q 13.09375 14.59375 14.890625 12.453125 
Q 17.484375 9.328125 18.796875 8.453125 
Q 21.96875 6.296875 27.4375 6.296875 
Q 35.890625 6.296875 41.453125 12.75 
Q 46.78125 18.890625 46.78125 27.546875 
Q 46.78125 34.671875 44.4375 39.109375 
Q 41.40625 44.734375 35.109375 44.734375 
Q 29.890625 44.734375 26.5625 43.3125 
Q 23.921875 42.1875 21.234375 39.453125 
L 15.921875 33.640625 
Q 13.765625 31.453125 11.53125 31.453125 
Q 9.578125 31.453125 8.203125 32.84375 
Q 6.84375 34.234375 6.84375 36.1875 
Q 6.84375 37.15625 7.625 44.875 
Q 9.28125 60.25 9.28125 65.09375 
Q 9.28125 66.796875 8.421875 68.8125 
Q 7.5625 70.84375 7.5625 71.828125 
Q 7.5625 74.8125 12.703125 74.8125 
Q 13.671875 74.8125 15.640625 74.640625 
Q 17.625 74.46875 18.609375 74.46875 
Q 21.4375 74.46875 27.09375 74.65625 
Q 32.765625 74.859375 35.59375 74.859375 
Q 36.921875 74.859375 39.59375 74.75 
Q 42.28125 74.65625 43.609375 74.65625 
Q 44.53125 74.65625 46.28125 75.015625 
Q 48.046875 75.390625 48.921875 75.390625 
Q 50.828125 75.390625 52.296875 73.96875 
Q 53.765625 72.5625 53.765625 70.703125 
Q 53.765625 65.234375 42.1875 65.234375 
Q 40.671875 65.234375 38.375 65.328125 
Q 36.078125 65.4375 35.59375 65.4375 
L 27.34375 65.28125 
L 19.09375 65.046875 
Q 19.09375 62.84375 17.28125 48.78125 
Q 23.96875 54.109375 35.109375 54.109375 
Q 45.84375 54.109375 51.515625 45.703125 
Q 56.296875 38.578125 56.296875 27.546875 
Q 56.296875 14.359375 48.578125 5.8125 
Q 40.578125 -3.078125 27.4375 -3.078125 
z
" id="ComicSansMS-35"/>
      </defs>
      <g style="fill:#262626;" transform="translate(149.542457 185.88425)scale(0.1 -0.1)">
       <use xlink:href="#ComicSansMS-2212"/>
       <use x="48.046875" xlink:href="#ComicSansMS-35"/>
      </g>
     </g>
    </g>
    <g id="xtick_7">
     <g id="line2d_7"/>
     <g id="text_7">
      <!-- −4 -->
      <defs>
       <path d="M 47.078125 21.34375 
L 47.078125 3.265625 
Q 47.078125 -1.265625 42.625 -1.265625 
Q 37.453125 -1.265625 37.453125 5.8125 
Q 37.453125 6.6875 37.546875 8.296875 
Q 37.640625 9.90625 37.640625 10.5 
L 37.59375 21.578125 
L 16.0625 22.125 
Q 9.375 22.125 6.78125 22.5625 
Q 2.34375 23.296875 2.34375 26.03125 
Q 2.34375 28.21875 5.03125 31.59375 
L 9.234375 36.578125 
L 33.25 71.625 
Q 36.53125 76.171875 41.546875 76.171875 
Q 47.078125 76.171875 47.078125 71.390625 
L 47.078125 30.8125 
Q 47.90625 30.859375 49.078125 30.859375 
Q 58.0625 30.859375 58.0625 26.03125 
Q 58.0625 22.515625 54.34375 21.578125 
Q 52.6875 21.140625 47.078125 21.34375 
z
M 37.59375 62.640625 
Q 24.5625 41.84375 17.234375 31.5 
L 37.59375 31 
z
" id="ComicSansMS-34"/>
      </defs>
      <g style="fill:#262626;" transform="translate(165.775185 185.88425)scale(0.1 -0.1)">
       <use xlink:href="#ComicSansMS-2212"/>
       <use x="48.046875" xlink:href="#ComicSansMS-34"/>
      </g>
     </g>
    </g>
    <g id="xtick_8">
     <g id="line2d_8"/>
     <g id="text_8">
      <!-- −3 -->
      <defs>
       <path d="M 29.546875 -2.25 
Q 22.171875 -2.25 16.3125 0.828125 
Q 9.71875 4.390625 7.421875 10.84375 
Q 7.125 11.71875 7.125 12.546875 
Q 7.125 14.5 8.609375 15.796875 
Q 10.109375 17.09375 12.0625 17.09375 
Q 14.015625 17.09375 15.4375 15.28125 
L 17.671875 11.921875 
Q 19.4375 9.515625 22.40625 8.3125 
Q 25.390625 7.125 29.546875 7.125 
Q 34.859375 7.125 38.875 10.453125 
Q 43.109375 13.96875 43.109375 19.046875 
Q 43.109375 26.421875 37.703125 30.8125 
Q 32.90625 34.625 25 35.453125 
Q 19.578125 35.984375 19.578125 39.84375 
Q 19.578125 42.71875 23.828125 44.234375 
L 35.5 47.125 
Q 38.875 48.34375 40.578125 50.40625 
Q 42.28125 52.484375 42.328125 55.46875 
Q 42.4375 59.765625 39.015625 62.40625 
Q 35.453125 65.140625 29 65.140625 
Q 25.6875 65.140625 22.5625 63.53125 
L 17.046875 60.0625 
Q 15.4375 59.03125 14.453125 59.03125 
Q 12.5 59.03125 11.109375 60.515625 
Q 9.71875 62.015625 9.71875 63.921875 
Q 9.71875 67.78125 17.1875 71.34375 
Q 23.6875 74.515625 27.875 74.515625 
Q 38.375 74.515625 44.53125 69.875 
Q 51.125 64.890625 51.125 55.671875 
Q 51.125 44.1875 41.84375 40.53125 
Q 41.015625 40.1875 39.9375 39.84375 
Q 46.4375 37.453125 49.65625 32.6875 
Q 52.875 27.9375 52.875 20.796875 
Q 52.875 11.1875 46.09375 4.46875 
Q 39.3125 -2.25 29.546875 -2.25 
z
" id="ComicSansMS-33"/>
      </defs>
      <g style="fill:#262626;" transform="translate(182.007912 185.88425)scale(0.1 -0.1)">
       <use xlink:href="#ComicSansMS-2212"/>
       <use x="48.046875" xlink:href="#ComicSansMS-33"/>
      </g>
     </g>
    </g>
    <g id="xtick_9">
     <g id="line2d_9"/>
     <g id="text_9">
      <!-- −2 -->
      <defs>
       <path d="M 49.21875 -0.09375 
Q 48 -0.09375 45.78125 0.65625 
Q 43.5625 1.421875 42.390625 1.421875 
Q 39.890625 1.421875 34.90625 1.125 
Q 29.9375 0.828125 27.390625 0.828125 
Q 25.484375 0.828125 21.75 0.34375 
Q 18.015625 -0.140625 16.109375 -0.140625 
Q 15.578125 -0.140625 14.546875 0.046875 
Q 13.53125 0.25 12.984375 0.25 
Q 9.625 0.25 8.59375 3.515625 
Q 8.015625 5.21875 8.015625 9.375 
Q 8.015625 20.75 14.203125 27.6875 
Q 17.046875 30.859375 29.5 39.40625 
Q 36.46875 44.1875 38.8125 46.875 
Q 43.015625 51.5625 43.015625 57.859375 
Q 43.015625 60.984375 38.96875 63.421875 
Q 35.40625 65.625 31.984375 65.625 
Q 27.484375 65.625 23.4375 63.03125 
L 16.453125 57.5625 
Q 14.359375 55.90625 13.09375 55.90625 
Q 8.0625 55.90625 8.0625 59.90625 
Q 8.0625 62.203125 9.90625 63.875 
Q 15.625 69.234375 19.828125 71.625 
Q 25.734375 75 31.984375 75 
Q 39.890625 75 46.09375 70.703125 
Q 53.03125 65.875 53.03125 58.296875 
Q 53.03125 53.328125 51.609375 49.125 
Q 50.203125 44.921875 47.3125 41.453125 
Q 43.65625 37.0625 34.90625 31.640625 
Q 25.734375 25.875 22.859375 22.90625 
Q 17.4375 17.28125 17.53125 9.28125 
L 27.59375 10.203125 
Q 37.9375 10.796875 42.390625 10.796875 
Q 46.09375 10.796875 49.421875 9.515625 
Q 53.8125 7.8125 53.8125 4.78125 
Q 53.8125 2.875 52.484375 1.390625 
Q 51.171875 -0.09375 49.21875 -0.09375 
z
" id="ComicSansMS-32"/>
      </defs>
      <g style="fill:#262626;" transform="translate(198.240639 185.88425)scale(0.1 -0.1)">
       <use xlink:href="#ComicSansMS-2212"/>
       <use x="48.046875" xlink:href="#ComicSansMS-32"/>
      </g>
     </g>
    </g>
    <g id="xtick_10">
     <g id="line2d_10"/>
     <g id="text_10">
      <!-- −1 -->
      <g style="fill:#262626;" transform="translate(215.274148 185.88425)scale(0.1 -0.1)">
       <use xlink:href="#ComicSansMS-2212"/>
       <use x="48.046875" xlink:href="#ComicSansMS-31"/>
      </g>
     </g>
    </g>
    <g id="xtick_11">
     <g id="line2d_11"/>
     <g id="text_11">
      <!-- 0 -->
      <g style="fill:#262626;" transform="translate(233.108438 185.88425)scale(0.1 -0.1)">
       <use xlink:href="#ComicSansMS-30"/>
      </g>
     </g>
    </g>
    <g id="xtick_12">
     <g id="line2d_12"/>
     <g id="text_12">
      <!-- 1 -->
      <g style="fill:#262626;" transform="translate(250.141946 185.88425)scale(0.1 -0.1)">
       <use xlink:href="#ComicSansMS-31"/>
      </g>
     </g>
    </g>
    <g id="xtick_13">
     <g id="line2d_13"/>
     <g id="text_13">
      <!-- 2 -->
      <g style="fill:#262626;" transform="translate(265.573892 185.88425)scale(0.1 -0.1)">
       <use xlink:href="#ComicSansMS-32"/>
      </g>
     </g>
    </g>
    <g id="xtick_14">
     <g id="line2d_14"/>
     <g id="text_14">
      <!-- 3 -->
      <g style="fill:#262626;" transform="translate(281.806619 185.88425)scale(0.1 -0.1)">
       <use xlink:href="#ComicSansMS-33"/>
      </g>
     </g>
    </g>
    <g id="xtick_15">
     <g id="line2d_15"/>
     <g id="text_15">
      <!-- 4 -->
      <g style="fill:#262626;" transform="translate(298.039347 185.88425)scale(0.1 -0.1)">
       <use xlink:href="#ComicSansMS-34"/>
      </g>
     </g>
    </g>
    <g id="xtick_16">
     <g id="line2d_16"/>
     <g id="text_16">
      <!-- 5 -->
      <g style="fill:#262626;" transform="translate(314.272074 185.88425)scale(0.1 -0.1)">
       <use xlink:href="#ComicSansMS-35"/>
      </g>
     </g>
    </g>
    <g id="xtick_17">
     <g id="line2d_17"/>
     <g id="text_17">
      <!-- 6 -->
      <g style="fill:#262626;" transform="translate(330.504801 185.88425)scale(0.1 -0.1)">
       <use xlink:href="#ComicSansMS-36"/>
      </g>
     </g>
    </g>
    <g id="xtick_18">
     <g id="line2d_18"/>
     <g id="text_18">
      <!-- 7 -->
      <g style="fill:#262626;" transform="translate(346.737528 185.88425)scale(0.1 -0.1)">
       <use xlink:href="#ComicSansMS-37"/>
      </g>
     </g>
    </g>
    <g id="xtick_19">
     <g id="line2d_19"/>
     <g id="text_19">
      <!-- 8 -->
      <g style="fill:#262626;" transform="translate(362.970256 185.88425)scale(0.1 -0.1)">
       <use xlink:href="#ComicSansMS-38"/>
      </g>
     </g>
    </g>
    <g id="xtick_20">
     <g id="line2d_20"/>
     <g id="text_20">
      <!-- 9 -->
      <g style="fill:#262626;" transform="translate(379.202983 185.88425)scale(0.1 -0.1)">
       <use xlink:href="#ComicSansMS-39"/>
      </g>
     </g>
    </g>
    <g id="xtick_21">
     <g id="line2d_21"/>
     <g id="text_21">
      <!-- 10 -->
      <g style="fill:#262626;" transform="translate(393.184929 185.88425)scale(0.1 -0.1)">
       <use xlink:href="#ComicSansMS-31"/>
       <use x="45.019531" xlink:href="#ComicSansMS-30"/>
      </g>
     </g>
    </g>
   </g>
   <g id="matplotlib.axis_2">
    <g id="ytick_1">
     <g id="line2d_22"/>
     <g id="text_22">
      <!-- −10 -->
      <g style="fill:#262626;" transform="translate(217.250625 311.512125)scale(0.1 -0.1)">
       <use xlink:href="#ComicSansMS-2212"/>
       <use x="48.046875" xlink:href="#ComicSansMS-31"/>
       <use x="93.066406" xlink:href="#ComicSansMS-30"/>
      </g>
     </g>
    </g>
    <g id="ytick_2">
     <g id="line2d_23"/>
     <g id="text_23">
      <!-- −9 -->
      <g style="fill:#262626;" transform="translate(221.752187 298.206525)scale(0.1 -0.1)">
       <use xlink:href="#ComicSansMS-2212"/>
       <use x="48.046875" xlink:href="#ComicSansMS-39"/>
      </g>
     </g>
    </g>
    <g id="ytick_3">
     <g id="line2d_24"/>
     <g id="text_24">
      <!-- −8 -->
      <g style="fill:#262626;" transform="translate(221.752187 284.900925)scale(0.1 -0.1)">
       <use xlink:href="#ComicSansMS-2212"/>
       <use x="48.046875" xlink:href="#ComicSansMS-38"/>
      </g>
     </g>
    </g>
    <g id="ytick_4">
     <g id="line2d_25"/>
     <g id="text_25">
      <!-- −7 -->
      <g style="fill:#262626;" transform="translate(221.752187 271.595325)scale(0.1 -0.1)">
       <use xlink:href="#ComicSansMS-2212"/>
       <use x="48.046875" xlink:href="#ComicSansMS-37"/>
      </g>
     </g>
    </g>
    <g id="ytick_5">
     <g id="line2d_26"/>
     <g id="text_26">
      <!-- −6 -->
      <g style="fill:#262626;" transform="translate(221.752187 258.289725)scale(0.1 -0.1)">
       <use xlink:href="#ComicSansMS-2212"/>
       <use x="48.046875" xlink:href="#ComicSansMS-36"/>
      </g>
     </g>
    </g>
    <g id="ytick_6">
     <g id="line2d_27"/>
     <g id="text_27">
      <!-- −5 -->
      <g style="fill:#262626;" transform="translate(221.752187 244.984125)scale(0.1 -0.1)">
       <use xlink:href="#ComicSansMS-2212"/>
       <use x="48.046875" xlink:href="#ComicSansMS-35"/>
      </g>
     </g>
    </g>
    <g id="ytick_7">
     <g id="line2d_28"/>
     <g id="text_28">
      <!-- −4 -->
      <g style="fill:#262626;" transform="translate(221.752187 231.678525)scale(0.1 -0.1)">
       <use xlink:href="#ComicSansMS-2212"/>
       <use x="48.046875" xlink:href="#ComicSansMS-34"/>
      </g>
     </g>
    </g>
    <g id="ytick_8">
     <g id="line2d_29"/>
     <g id="text_29">
      <!-- −3 -->
      <g style="fill:#262626;" transform="translate(221.752187 218.372925)scale(0.1 -0.1)">
       <use xlink:href="#ComicSansMS-2212"/>
       <use x="48.046875" xlink:href="#ComicSansMS-33"/>
      </g>
     </g>
    </g>
    <g id="ytick_9">
     <g id="line2d_30"/>
     <g id="text_30">
      <!-- −2 -->
      <g style="fill:#262626;" transform="translate(221.752187 205.067325)scale(0.1 -0.1)">
       <use xlink:href="#ComicSansMS-2212"/>
       <use x="48.046875" xlink:href="#ComicSansMS-32"/>
      </g>
     </g>
    </g>
    <g id="ytick_10">
     <g id="line2d_31"/>
     <g id="text_31">
      <!-- −1 -->
      <g style="fill:#262626;" transform="translate(223.35375 191.761725)scale(0.1 -0.1)">
       <use xlink:href="#ComicSansMS-2212"/>
       <use x="48.046875" xlink:href="#ComicSansMS-31"/>
      </g>
     </g>
    </g>
    <g id="ytick_11">
     <g id="line2d_32"/>
     <g id="text_32">
      <!-- 0 -->
      <g style="fill:#262626;" transform="translate(226.556875 178.456125)scale(0.1 -0.1)">
       <use xlink:href="#ComicSansMS-30"/>
      </g>
     </g>
    </g>
    <g id="ytick_12">
     <g id="line2d_33"/>
     <g id="text_33">
      <!-- 1 -->
      <g style="fill:#262626;" transform="translate(228.158437 165.150525)scale(0.1 -0.1)">
       <use xlink:href="#ComicSansMS-31"/>
      </g>
     </g>
    </g>
    <g id="ytick_13">
     <g id="line2d_34"/>
     <g id="text_34">
      <!-- 2 -->
      <g style="fill:#262626;" transform="translate(226.556875 151.844925)scale(0.1 -0.1)">
       <use xlink:href="#ComicSansMS-32"/>
      </g>
     </g>
    </g>
    <g id="ytick_14">
     <g id="line2d_35"/>
     <g id="text_35">
      <!-- 3 -->
      <g style="fill:#262626;" transform="translate(226.556875 138.539325)scale(0.1 -0.1)">
       <use xlink:href="#ComicSansMS-33"/>
      </g>
     </g>
    </g>
    <g id="ytick_15">
     <g id="line2d_36"/>
     <g id="text_36">
      <!-- 4 -->
      <g style="fill:#262626;" transform="translate(226.556875 125.233725)scale(0.1 -0.1)">
       <use xlink:href="#ComicSansMS-34"/>
      </g>
     </g>
    </g>
    <g id="ytick_16">
     <g id="line2d_37"/>
     <g id="text_37">
      <!-- 5 -->
      <g style="fill:#262626;" transform="translate(226.556875 111.928125)scale(0.1 -0.1)">
       <use xlink:href="#ComicSansMS-35"/>
      </g>
     </g>
    </g>
    <g id="ytick_17">
     <g id="line2d_38"/>
     <g id="text_38">
      <!-- 6 -->
      <g style="fill:#262626;" transform="translate(226.556875 98.622525)scale(0.1 -0.1)">
       <use xlink:href="#ComicSansMS-36"/>
      </g>
     </g>
    </g>
    <g id="ytick_18">
     <g id="line2d_39"/>
     <g id="text_39">
      <!-- 7 -->
      <g style="fill:#262626;" transform="translate(226.556875 85.316925)scale(0.1 -0.1)">
       <use xlink:href="#ComicSansMS-37"/>
      </g>
     </g>
    </g>
    <g id="ytick_19">
     <g id="line2d_40"/>
     <g id="text_40">
      <!-- 8 -->
      <g style="fill:#262626;" transform="translate(226.556875 72.011325)scale(0.1 -0.1)">
       <use xlink:href="#ComicSansMS-38"/>
      </g>
     </g>
    </g>
    <g id="ytick_20">
     <g id="line2d_41"/>
     <g id="text_41">
      <!-- 9 -->
      <g style="fill:#262626;" transform="translate(226.556875 58.705725)scale(0.1 -0.1)">
       <use xlink:href="#ComicSansMS-39"/>
      </g>
     </g>
    </g>
    <g id="ytick_21">
     <g id="line2d_42"/>
     <g id="text_42">
      <!-- 10 -->
      <g style="fill:#262626;" transform="translate(222.055312 45.400125)scale(0.1 -0.1)">
       <use xlink:href="#ComicSansMS-31"/>
       <use x="45.019531" xlink:href="#ComicSansMS-30"/>
      </g>
     </g>
    </g>
   </g>
   <g id="PathCollection_1">
    <path clip-path="url(#p111f67c524)" d="M 0 349.135534 
C 0.937635 349.135534 1.836992 348.763008 2.5 348.1 
C 3.163008 347.436992 3.535534 346.537635 3.535534 345.6 
C 3.535534 344.662365 3.163008 343.763008 2.5 343.1 
C 1.836992 342.436992 0.937635 342.064466 0 342.064466 
C -0.937635 342.064466 -1.836992 342.436992 -2.5 343.1 
C -3.163008 343.763008 -3.535534 344.662365 -3.535534 345.6 
C -3.535534 346.537635 -3.163008 347.436992 -2.5 348.1 
C -1.836992 348.763008 -0.937635 349.135534 0 349.135534 
z
" style="fill:none;stroke:#800080;"/>
   </g>
   <g id="PathCollection_2">
    <defs>
     <path d="M 0 2.5 
C 0.663008 2.5 1.29895 2.236584 1.767767 1.767767 
C 2.236584 1.29895 2.5 0.663008 2.5 0 
C 2.5 -0.663008 2.236584 -1.29895 1.767767 -1.767767 
C 1.29895 -2.236584 0.663008 -2.5 0 -2.5 
C -0.663008 -2.5 -1.29895 -2.236584 -1.767767 -1.767767 
C -2.236584 -1.29895 -2.5 -0.663008 -2.5 0 
C -2.5 0.663008 -2.236584 1.29895 -1.767767 1.767767 
C -1.29895 2.236584 -0.663008 2.5 0 2.5 
z
" id="md0af1aa8e8" style="stroke:#0000ff;"/>
    </defs>
    <g clip-path="url(#p111f67c524)">
     <use style="fill:#0000ff;stroke:#0000ff;" x="108.684393" xlink:href="#md0af1aa8e8" y="187.833594"/>
     <use style="fill:#0000ff;stroke:#0000ff;" x="159.671389" xlink:href="#md0af1aa8e8" y="161.222401"/>
     <use style="fill:#0000ff;stroke:#0000ff;" x="210.674618" xlink:href="#md0af1aa8e8" y="187.833596"/>
     <use style="fill:#0000ff;stroke:#0000ff;" x="261.661615" xlink:href="#md0af1aa8e8" y="161.2224"/>
     <use style="fill:#0000ff;stroke:#0000ff;" x="312.664844" xlink:href="#md0af1aa8e8" y="187.833598"/>
     <use style="fill:#0000ff;stroke:#0000ff;" x="363.65184" xlink:href="#md0af1aa8e8" y="161.2224"/>
    </g>
   </g>
   <g id="PathCollection_3">
    <defs>
     <path d="M 0 2.5 
C 0.663008 2.5 1.29895 2.236584 1.767767 1.767767 
C 2.236584 1.29895 2.5 0.663008 2.5 0 
C 2.5 -0.663008 2.236584 -1.29895 1.767767 -1.767767 
C 1.29895 -2.236584 0.663008 -2.5 0 -2.5 
C -0.663008 -2.5 -1.29895 -2.236584 -1.767767 -1.767767 
C -2.236584 -1.29895 -2.5 -0.663008 -2.5 0 
C -2.5 0.663008 -2.236584 1.29895 -1.767767 1.767767 
C -1.29895 2.236584 -0.663008 2.5 0 2.5 
z
" id="m2050cbc595" style="stroke:#008000;"/>
    </defs>
    <g clip-path="url(#p111f67c524)">
     <use style="fill:#008000;stroke:#008000;" x="83.182778" xlink:href="#m2050cbc595" y="174.538351"/>
     <use style="fill:#008000;stroke:#008000;" x="134.169775" xlink:href="#m2050cbc595" y="174.525534"/>
     <use style="fill:#008000;stroke:#008000;" x="185.173004" xlink:href="#m2050cbc595" y="174.535886"/>
     <use style="fill:#008000;stroke:#008000;" x="236.16" xlink:href="#m2050cbc595" y="174.528"/>
     <use style="fill:#008000;stroke:#008000;" x="287.163229" xlink:href="#m2050cbc595" y="174.53342"/>
     <use style="fill:#008000;stroke:#008000;" x="338.166458" xlink:href="#m2050cbc595" y="174.51716"/>
     <use style="fill:#008000;stroke:#008000;" x="389.153455" xlink:href="#m2050cbc595" y="174.530954"/>
    </g>
   </g>
   <g id="line2d_43">
    <path clip-path="url(#p111f67c524)" d="M 73.832727 167.289473 
L 77.160436 169.713735 
L 81.656902 173.289421 
L 90.09792 180.035719 
L 93.49056 182.428914 
L 96.363753 184.190524 
L 98.944756 185.516955 
L 101.330967 186.497283 
L 103.587316 187.18706 
L 105.762502 187.620963 
L 107.888989 187.818263 
L 109.983011 187.789995 
L 112.093265 187.538559 
L 114.235985 187.05863 
L 116.459869 186.330112 
L 118.797382 185.326273 
L 121.297222 184.005999 
L 124.056785 182.289471 
L 127.222167 180.048273 
L 131.264116 176.894578 
L 142.269905 168.158471 
L 145.45152 166.005394 
L 148.211084 164.399572 
L 150.710924 163.195869 
L 153.048436 162.312521 
L 155.27232 161.706621 
L 157.41504 161.350016 
L 159.525295 161.222893 
L 161.619316 161.318706 
L 163.729571 161.63732 
L 165.904756 162.19334 
L 168.161105 163.003617 
L 170.547316 164.101997 
L 173.112087 165.532567 
L 175.969047 167.388163 
L 179.312989 169.835708 
L 183.923084 173.512343 
L 191.958284 179.936394 
L 195.383389 182.362544 
L 198.272815 184.142962 
L 200.853818 185.477907 
L 203.240029 186.466987 
L 205.496378 187.165645 
L 207.671564 187.608501 
L 209.798051 187.814773 
L 211.892073 187.795397 
L 214.002327 187.552833 
L 216.145047 187.081664 
L 218.368931 186.361812 
L 220.706444 185.366439 
L 223.206284 184.054294 
L 225.949615 182.356169 
L 229.098764 180.135118 
L 233.092015 177.027814 
L 244.454924 168.0209 
L 247.604073 165.905521 
L 250.347404 164.323907 
L 252.847244 163.134845 
L 255.184756 162.266503 
L 257.40864 161.675767 
L 259.55136 161.334323 
L 261.661615 161.2224 
L 263.755636 161.333305 
L 265.882124 161.670298 
L 268.057309 162.242904 
L 270.313658 163.069442 
L 272.699869 164.183633 
L 275.280873 165.639119 
L 278.154065 167.52131 
L 281.546705 170.02067 
L 286.319127 173.841833 
L 293.802415 179.824503 
L 297.259985 182.285068 
L 300.149411 184.076629 
L 302.746647 185.430943 
L 305.149091 186.43637 
L 307.40544 187.14389 
L 309.580625 187.595689 
L 311.707113 187.810925 
L 313.801135 187.800443 
L 315.911389 187.566756 
L 318.054109 187.10436 
L 320.26176 186.399209 
L 322.58304 185.421615 
L 325.066647 184.130009 
L 327.793745 182.454664 
L 330.910429 180.269732 
L 334.822516 177.238997 
L 346.769804 167.792225 
L 349.870255 165.736353 
L 352.58112 164.198528 
L 355.064727 163.04099 
L 357.386007 162.201302 
L 359.593658 161.635978 
L 361.736378 161.314897 
L 363.846633 161.223361 
L 365.940655 161.35448 
L 368.067142 161.711639 
L 370.242327 162.304136 
L 372.514909 163.157049 
L 374.917353 164.300225 
L 377.514589 165.786768 
L 380.420247 167.712488 
L 383.877818 170.282205 
L 388.926196 174.344682 
L 395.679011 179.736664 
L 398.487273 181.766527 
L 398.487273 181.766527 
" style="fill:none;stroke:#ff0000;stroke-linecap:round;stroke-width:1.5;"/>
   </g>
   <g id="line2d_44">
    <path clip-path="url(#p111f67c524)" d="M 73.832727 185.69235 
L 76.186473 186.621103 
L 78.426589 187.269524 
L 80.585542 187.665296 
L 82.695796 187.827919 
L 84.789818 187.767422 
L 86.900073 187.483889 
L 89.059025 186.9676 
L 91.299142 186.199796 
L 93.652887 185.154275 
L 96.185193 183.781116 
L 98.977222 182.00813 
L 102.223767 179.672881 
L 106.492975 176.305862 
L 116.054051 168.68091 
L 119.365527 166.380821 
L 122.190022 164.68265 
L 124.73856 163.404307 
L 127.108538 162.460511 
L 129.348655 161.804214 
L 131.507607 161.400531 
L 133.617862 161.230006 
L 135.711884 161.282631 
L 137.822138 161.55833 
L 139.981091 162.066846 
L 142.221207 162.826988 
L 144.574953 163.865061 
L 147.107258 165.23107 
L 149.899287 166.997411 
L 153.1296 169.314574 
L 157.350109 172.6369 
L 167.170909 180.463462 
L 170.44992 182.731943 
L 173.258182 184.412701 
L 175.80672 185.683762 
L 178.176698 186.620074 
L 180.416815 187.268813 
L 182.575767 187.664905 
L 184.686022 187.827847 
L 186.780044 187.767667 
L 188.890298 187.48445 
L 191.049251 186.968475 
L 193.289367 186.20098 
L 195.643113 185.155759 
L 198.175418 183.782887 
L 200.967447 182.010169 
L 204.213993 179.675155 
L 208.4832 176.308305 
L 218.060509 168.671174 
L 221.371985 166.372253 
L 224.19648 164.675362 
L 226.745018 163.398363 
L 229.114996 162.455949 
L 231.355113 161.801048 
L 233.514065 161.398767 
L 235.62432 161.229644 
L 237.718342 161.283665 
L 239.828596 161.560755 
L 241.987549 162.07065 
L 244.227665 162.832153 
L 246.581411 163.871548 
L 249.113716 165.238828 
L 251.905745 167.006351 
L 255.136058 169.324549 
L 259.356567 172.647631 
L 269.161135 180.461255 
L 272.440145 182.730002 
L 275.248407 184.411051 
L 277.796945 185.682418 
L 280.166924 186.619045 
L 282.40704 187.268102 
L 284.565993 187.664514 
L 286.676247 187.827774 
L 288.770269 187.767912 
L 290.880524 187.485011 
L 293.039476 186.969349 
L 295.279593 186.202163 
L 297.633338 185.157242 
L 300.165644 183.784659 
L 302.957673 182.012208 
L 306.204218 179.677428 
L 310.457193 176.323933 
L 320.066967 168.661443 
L 323.378444 166.363691 
L 326.202938 164.66808 
L 328.751476 163.392426 
L 331.121455 162.451395 
L 333.361571 161.797891 
L 335.520524 161.397013 
L 337.630778 161.229291 
L 339.7248 161.284709 
L 341.835055 161.563188 
L 343.994007 162.074463 
L 346.234124 162.837325 
L 348.587869 163.878043 
L 351.120175 165.246592 
L 353.912204 167.015295 
L 357.142516 169.334528 
L 361.379258 172.671537 
L 371.118895 180.435215 
L 374.414138 182.717577 
L 377.238633 184.4094 
L 379.787171 185.681074 
L 382.157149 186.618016 
L 384.397265 187.267391 
L 386.556218 187.664122 
L 388.666473 187.827701 
L 390.760495 187.768157 
L 392.870749 187.485571 
L 395.029702 186.970223 
L 397.269818 186.203346 
L 398.487273 185.69235 
L 398.487273 185.69235 
" style="fill:none;stroke:#0000ff;stroke-linecap:round;stroke-width:1.5;"/>
   </g>
   <g id="line2d_45">
    <path clip-path="url(#p111f67c524)" d="M 73.832727 181.766527 
L 77.160436 179.342265 
L 81.656902 175.766579 
L 90.09792 169.020281 
L 93.49056 166.627086 
L 96.363753 164.865476 
L 98.944756 163.539045 
L 101.330967 162.558717 
L 103.587316 161.86894 
L 105.762502 161.435037 
L 107.888989 161.237737 
L 109.983011 161.266005 
L 112.093265 161.517441 
L 114.235985 161.99737 
L 116.459869 162.725888 
L 118.797382 163.729727 
L 121.297222 165.050001 
L 124.040553 166.755725 
L 127.205935 168.995623 
L 131.231651 172.13524 
L 142.302371 180.92088 
L 145.483985 183.071025 
L 148.243549 184.673665 
L 150.743389 185.874055 
L 153.080902 186.754003 
L 155.304785 187.356467 
L 157.447505 187.709635 
L 159.55776 187.833309 
L 161.651782 187.734072 
L 163.762036 187.41206 
L 165.937222 186.852657 
L 168.193571 186.039059 
L 170.579782 184.937449 
L 173.144553 183.503807 
L 176.001513 181.645367 
L 179.361687 179.182919 
L 184.004247 175.47731 
L 191.925818 169.14393 
L 195.350924 166.71498 
L 198.240349 164.931452 
L 200.821353 163.593233 
L 203.207564 162.600784 
L 205.463913 161.898706 
L 207.639098 161.452399 
L 209.765585 161.242669 
L 211.859607 161.258614 
L 213.969862 161.497755 
L 216.112582 161.965542 
L 218.336465 162.682046 
L 220.657745 163.666456 
L 223.141353 164.964626 
L 225.868451 166.646133 
L 229.001367 168.848584 
L 232.94592 171.910671 
L 244.633484 181.162369 
L 247.750167 183.241332 
L 250.477265 184.800078 
L 252.960873 185.968985 
L 255.282153 186.820276 
L 257.489804 187.397291 
L 259.632524 187.730123 
L 261.742778 187.83342 
L 263.8368 187.713959 
L 265.963287 187.368425 
L 268.138473 186.787391 
L 270.394822 185.952599 
L 272.797265 184.82197 
L 275.394502 183.347357 
L 278.283927 181.443976 
L 281.709033 178.909918 
L 286.611316 174.974886 
L 293.737484 169.280363 
L 297.211287 166.803398 
L 300.116945 164.997923 
L 302.714182 163.640332 
L 305.116625 162.631524 
L 307.389207 161.916345 
L 309.564393 161.462823 
L 311.69088 161.245858 
L 313.784902 161.254624 
L 315.895156 161.486599 
L 318.037876 161.947301 
L 320.245527 162.650787 
L 322.566807 163.626751 
L 325.050415 164.916785 
L 327.777513 166.590654 
L 330.894196 168.774268 
L 334.806284 171.803978 
L 346.786036 181.275246 
L 349.886487 183.32963 
L 352.597353 184.865854 
L 355.08096 186.021719 
L 357.40224 186.859701 
L 359.609891 187.423307 
L 361.752611 187.742662 
L 363.862865 187.832472 
L 365.956887 187.699644 
L 368.083375 187.340779 
L 370.25856 186.746602 
L 372.531142 185.892036 
L 374.933585 184.747259 
L 377.547055 183.249152 
L 380.468945 181.309199 
L 383.942749 178.723321 
L 389.056058 174.604879 
L 395.679011 169.319336 
L 398.487273 167.289473 
L 398.487273 167.289473 
" style="fill:none;stroke:#008000;stroke-linecap:round;stroke-width:1.5;"/>
   </g>
   <g id="patch_3">
    <path d="M 236.16 307.584 
L 236.16 41.472 
" style="fill:none;stroke:#cccccc;stroke-linecap:square;stroke-linejoin:miter;"/>
   </g>
   <g id="patch_4">
    <path d="M 414.72 307.584 
L 414.72 41.472 
" style="fill:none;"/>
   </g>
   <g id="patch_5">
    <path d="M 57.6 174.528 
L 414.72 174.528 
" style="fill:none;stroke:#cccccc;stroke-linecap:square;stroke-linejoin:miter;"/>
   </g>
   <g id="patch_6">
    <path d="M 57.6 41.472 
L 414.72 41.472 
" style="fill:none;"/>
   </g>
   <g id="legend_1">
    <g id="line2d_46">
     <path d="M 359.46375 54.251688 
L 379.46375 54.251688 
" style="fill:none;stroke:#ff0000;stroke-linecap:round;stroke-width:1.5;"/>
    </g>
    <g id="line2d_47"/>
    <g id="text_43">
     <!-- f(x) -->
     <defs>
      <path d="M 8.6875 0 
L 8.6875 45.015625 
L 0.921875 45.015625 
L 0.921875 51.859375 
L 8.6875 51.859375 
L 8.6875 57.375 
Q 8.6875 62.59375 9.625 65.140625 
Q 10.890625 68.5625 14.078125 70.671875 
Q 17.28125 72.796875 23.046875 72.796875 
Q 26.765625 72.796875 31.25 71.921875 
L 29.9375 64.265625 
Q 27.203125 64.75 24.75 64.75 
Q 20.75 64.75 19.09375 63.03125 
Q 17.4375 61.328125 17.4375 56.640625 
L 17.4375 51.859375 
L 27.546875 51.859375 
L 27.546875 45.015625 
L 17.4375 45.015625 
L 17.4375 0 
z
" id="ArialMT-66"/>
      <path d="M 23.390625 -21.046875 
Q 16.109375 -11.859375 11.078125 0.4375 
Q 6.0625 12.75 6.0625 25.921875 
Q 6.0625 37.546875 9.8125 48.1875 
Q 14.203125 60.546875 23.390625 72.796875 
L 29.6875 72.796875 
Q 23.78125 62.640625 21.875 58.296875 
Q 18.890625 51.5625 17.1875 44.234375 
Q 15.09375 35.109375 15.09375 25.875 
Q 15.09375 2.390625 29.6875 -21.046875 
z
" id="ArialMT-28"/>
      <path d="M 0.734375 0 
L 19.671875 26.953125 
L 2.15625 51.859375 
L 13.140625 51.859375 
L 21.09375 39.703125 
Q 23.34375 36.234375 24.703125 33.890625 
Q 26.859375 37.109375 28.65625 39.59375 
L 37.40625 51.859375 
L 47.90625 51.859375 
L 29.984375 27.4375 
L 49.265625 0 
L 38.484375 0 
L 27.828125 16.109375 
L 25 20.453125 
L 11.375 0 
z
" id="ArialMT-78"/>
      <path d="M 12.359375 -21.046875 
L 6.0625 -21.046875 
Q 20.65625 2.390625 20.65625 25.875 
Q 20.65625 35.0625 18.5625 44.09375 
Q 16.890625 51.421875 13.921875 58.15625 
Q 12.015625 62.546875 6.0625 72.796875 
L 12.359375 72.796875 
Q 21.53125 60.546875 25.921875 48.1875 
Q 29.6875 37.546875 29.6875 25.921875 
Q 29.6875 12.75 24.625 0.4375 
Q 19.578125 -11.859375 12.359375 -21.046875 
z
" id="ArialMT-29"/>
     </defs>
     <g style="fill:#262626;" transform="translate(387.46375 57.751688)scale(0.1 -0.1)">
      <use xlink:href="#ArialMT-66"/>
      <use x="27.783203" xlink:href="#ArialMT-28"/>
      <use x="61.083984" xlink:href="#ArialMT-78"/>
      <use x="111.083984" xlink:href="#ArialMT-29"/>
     </g>
    </g>
    <g id="line2d_48">
     <path d="M 359.46375 68.636062 
L 379.46375 68.636062 
" style="fill:none;stroke:#0000ff;stroke-linecap:round;stroke-width:1.5;"/>
    </g>
    <g id="line2d_49"/>
    <g id="text_44">
     <!-- f'(x) -->
     <defs>
      <path d="M 6.640625 46.234375 
L 4.390625 59.625 
L 4.390625 71.578125 
L 14.40625 71.578125 
L 14.40625 59.625 
L 12.0625 46.234375 
z
" id="ArialMT-27"/>
     </defs>
     <g style="fill:#262626;" transform="translate(387.46375 72.136062)scale(0.1 -0.1)">
      <use xlink:href="#ArialMT-66"/>
      <use x="27.783203" xlink:href="#ArialMT-27"/>
      <use x="46.875" xlink:href="#ArialMT-28"/>
      <use x="80.175781" xlink:href="#ArialMT-78"/>
      <use x="130.175781" xlink:href="#ArialMT-29"/>
     </g>
    </g>
    <g id="line2d_50">
     <path d="M 359.46375 83.020438 
L 379.46375 83.020438 
" style="fill:none;stroke:#008000;stroke-linecap:round;stroke-width:1.5;"/>
    </g>
    <g id="line2d_51"/>
    <g id="text_45">
     <!-- f''(x) -->
     <g style="fill:#262626;" transform="translate(387.46375 86.520438)scale(0.1 -0.1)">
      <use xlink:href="#ArialMT-66"/>
      <use x="27.783203" xlink:href="#ArialMT-27"/>
      <use x="46.875" xlink:href="#ArialMT-27"/>
      <use x="65.966797" xlink:href="#ArialMT-28"/>
      <use x="99.267578" xlink:href="#ArialMT-78"/>
      <use x="149.267578" xlink:href="#ArialMT-29"/>
     </g>
    </g>
   </g>
  </g>
 </g>
 <defs>
  <clipPath id="p111f67c524">
   <rect height="266.112" width="357.12" x="57.6" y="41.472"/>
  </clipPath>
 </defs>
</svg>
