<?xml version="1.0" encoding="utf-8" standalone="no"?>
<!DOCTYPE svg PUBLIC "-//W3C//DTD SVG 1.1//EN"
  "http://www.w3.org/Graphics/SVG/1.1/DTD/svg11.dtd">
<!-- Created with matplotlib (http://matplotlib.org/) -->
<svg height="345pt" version="1.1" viewBox="0 0 460 345" width="460pt" xmlns="http://www.w3.org/2000/svg" xmlns:xlink="http://www.w3.org/1999/xlink">
 <defs>
  <style type="text/css">
*{stroke-linecap:butt;stroke-linejoin:round;}
  </style>
 </defs>
 <g id="figure_1">
  <g id="patch_1">
   <path d="M 0 345.6 
L 460.8 345.6 
L 460.8 0 
L 0 0 
z
" style="fill:#ffffff;"/>
  </g>
  <g id="axes_1">
   <g id="patch_2">
    <path d="M 57.6 307.584 
L 414.72 307.584 
L 414.72 41.472 
L 57.6 41.472 
z
" style="fill:#ffffff;"/>
   </g>
   <g id="matplotlib.axis_1">
    <g id="xtick_1">
     <g id="line2d_1"/>
     <g id="text_1">
      <!-- −10 -->
      <defs>
       <path d="M 30.609375 35.75 
Q 31.59375 35.75 33.59375 35.859375 
Q 35.59375 35.984375 36.578125 35.984375 
Q 44.578125 35.984375 44.578125 31.390625 
Q 44.578125 29.59375 43.375 28.25 
Q 42.1875 26.90625 40.375 26.90625 
Q 39.796875 26.90625 38.625 27.09375 
Q 37.453125 27.296875 36.8125 27.296875 
Q 32.328125 27.296875 23.359375 26.96875 
Q 14.40625 26.65625 9.90625 26.65625 
Q 2.34375 26.65625 2.34375 31.15625 
Q 2.34375 34.234375 4.828125 35.015625 
Q 5.859375 35.359375 9.90625 35.359375 
Q 12.75 35.359375 18.484375 35.671875 
Q 24.21875 35.984375 27.046875 35.984375 
Q 27.640625 35.984375 28.828125 35.859375 
Q 30.03125 35.75 30.609375 35.75 
z
" id="ComicSansMS-2212"/>
       <path d="M 34.375 -0.046875 
L 24.65625 -0.046875 
L 14.984375 0 
Q 11.578125 0 10.203125 0.4375 
Q 7.71875 1.3125 7.71875 4.15625 
Q 7.71875 9.078125 15.375 9.078125 
L 17.71875 9.03125 
L 19.734375 8.9375 
Q 19.734375 11.28125 19.3125 15.859375 
Q 18.890625 20.453125 18.890625 22.75 
Q 18.890625 28.953125 20.015625 41.609375 
Q 21.09375 54.046875 21.046875 60.5 
Q 14.5 55.421875 12.703125 55.421875 
Q 10.75 55.421875 9.296875 56.875 
Q 7.859375 58.34375 7.859375 60.25 
Q 7.859375 62.546875 12.0625 65.828125 
Q 14.703125 67.671875 19.53125 71.78125 
Q 23.828125 76.125 27.734375 76.125 
Q 31 76.125 31 72.359375 
Q 31 71.234375 30.703125 69.015625 
Q 30.421875 66.796875 30.421875 65.671875 
Q 30.421875 64.0625 30.59375 60.78125 
Q 30.765625 57.515625 30.765625 55.90625 
Q 30.765625 50.34375 29.59375 39.296875 
Q 28.421875 28.265625 28.421875 22.75 
Q 28.421875 19.921875 28.8125 15.859375 
Q 29.203125 11.8125 29.25 9.234375 
L 34.375 9.328125 
Q 36.421875 9.328125 37.765625 7.984375 
Q 39.109375 6.640625 39.109375 4.640625 
Q 39.109375 2.59375 37.765625 1.265625 
Q 36.421875 -0.046875 34.375 -0.046875 
z
" id="ComicSansMS-31"/>
       <path d="M 29.828125 -1.90625 
Q 14.984375 -1.90625 8.15625 11.671875 
Q 2.984375 22.125 2.984375 38.875 
Q 2.984375 53.03125 9.71875 63.578125 
Q 17.671875 75.921875 31.34375 75.921875 
Q 44.1875 75.921875 51.375 64.984375 
Q 57.5625 55.515625 57.5625 41.890625 
Q 57.5625 20.015625 50.625 9.046875 
Q 43.703125 -1.90625 29.828125 -1.90625 
z
M 31.296875 66.5 
Q 22.21875 66.5 16.890625 57.28125 
Q 12.453125 49.5625 12.453125 39.65625 
Q 12.453125 23.578125 16.796875 15.515625 
Q 21.140625 7.46875 29.828125 7.46875 
Q 40.1875 7.46875 44.671875 19.28125 
Q 47.796875 27.484375 47.796875 40.09375 
Q 47.796875 53.328125 43.671875 59.90625 
Q 39.546875 66.5 31.296875 66.5 
z
" id="ComicSansMS-30"/>
      </defs>
      <g style="fill:#262626;" transform="translate(66.12804 185.88425)scale(0.1 -0.1)">
       <use xlink:href="#ComicSansMS-2212"/>
       <use x="48.046875" xlink:href="#ComicSansMS-31"/>
       <use x="93.066406" xlink:href="#ComicSansMS-30"/>
      </g>
     </g>
    </g>
    <g id="xtick_2">
     <g id="line2d_2"/>
     <g id="text_2">
      <!-- −9 -->
      <defs>
       <path d="M 38.28125 5.90625 
Q 34.71875 3.265625 26.859375 -0.4375 
Q 18.109375 -4.640625 14.703125 -4.640625 
Q 12.703125 -4.640625 11.40625 -3.171875 
Q 10.109375 -1.703125 10.109375 0.25 
Q 10.109375 3.125 13.421875 4.59375 
L 21.578125 7.375 
Q 29.15625 10.453125 33.546875 14.453125 
Q 37.9375 18.453125 41.546875 25.828125 
L 43.65625 30.03125 
Q 40.921875 28.46875 36.625 27.140625 
Q 32.328125 25.828125 29.640625 25.828125 
Q 20.40625 25.828125 13.671875 30.953125 
Q 5.46875 37.203125 5.46875 48.734375 
Q 5.46875 62.359375 13.875 69.1875 
Q 21.046875 75 32.71875 75 
Q 41.703125 75 48.828125 67.671875 
Q 56.34375 59.90625 56.390625 48.921875 
Q 56.453125 36.53125 51.8125 24.859375 
Q 46.828125 12.25 38.28125 5.90625 
z
M 31.34375 66.65625 
Q 23.140625 66.65625 19.015625 62.40625 
Q 14.890625 58.15625 14.84375 49.609375 
Q 14.84375 42.4375 19.875 38.484375 
Q 24.3125 35.015625 31.0625 35.015625 
Q 34.96875 35.015625 39.203125 37.359375 
Q 41.15625 38.421875 46.234375 42.1875 
Q 46.875 46.4375 46.875 48.921875 
Q 46.828125 55.03125 41.71875 60.84375 
Q 36.625 66.65625 31.34375 66.65625 
z
" id="ComicSansMS-39"/>
      </defs>
      <g style="fill:#262626;" transform="translate(84.611548 185.88425)scale(0.1 -0.1)">
       <use xlink:href="#ComicSansMS-2212"/>
       <use x="48.046875" xlink:href="#ComicSansMS-39"/>
      </g>
     </g>
    </g>
    <g id="xtick_3">
     <g id="line2d_3"/>
     <g id="text_3">
      <!-- −8 -->
      <defs>
       <path d="M 29.984375 -2.640625 
Q 19.671875 -2.640625 13.328125 1.859375 
Q 6.109375 6.9375 5.953125 16.75 
Q 5.765625 32.515625 17.046875 38.234375 
Q 8.34375 43.5 8.34375 53.21875 
Q 8.34375 62.453125 15.046875 68.5625 
Q 21.4375 74.421875 30.5625 74.515625 
Q 51.078125 74.703125 51.078125 54.25 
Q 51.078125 48.390625 48.734375 45.21875 
Q 46.828125 42.578125 41.359375 39.796875 
Q 48.640625 36.140625 51.5625 31.890625 
Q 54.984375 26.90625 54.984375 18.171875 
Q 54.984375 8.203125 47.609375 2.546875 
Q 40.765625 -2.640625 29.984375 -2.640625 
z
M 30.421875 65.765625 
Q 24.125 65.765625 20.796875 62.203125 
Q 17.828125 58.890625 17.875 53.21875 
Q 17.921875 46.390625 29.109375 43.5 
Q 34.96875 45.21875 37.5 46.921875 
Q 41.546875 49.65625 41.546875 54.25 
Q 41.546875 60.890625 38.578125 63.578125 
Q 36.03125 65.765625 30.421875 65.765625 
z
M 29.546875 34.859375 
Q 21.78125 31.25 19.1875 28.609375 
Q 15.140625 24.5625 15.375 17.1875 
Q 15.578125 11.078125 21 8.0625 
Q 24.953125 5.90625 29.984375 5.90625 
Q 38.578125 5.90625 42 9.96875 
Q 44.734375 13.1875 44.734375 19.734375 
Q 44.734375 26.125 39.75 30.03125 
Q 36.421875 32.71875 29.546875 34.859375 
z
" id="ComicSansMS-38"/>
      </defs>
      <g style="fill:#262626;" transform="translate(100.844276 185.88425)scale(0.1 -0.1)">
       <use xlink:href="#ComicSansMS-2212"/>
       <use x="48.046875" xlink:href="#ComicSansMS-38"/>
      </g>
     </g>
    </g>
    <g id="xtick_4">
     <g id="line2d_4"/>
     <g id="text_4">
      <!-- −7 -->
      <defs>
       <path d="M 56.34375 63.765625 
L 51.90625 58.59375 
Q 45.5625 51.171875 40.234375 40.625 
L 31.34375 21.140625 
Q 30.421875 19 27.25 9.859375 
Q 24.703125 2.640625 22.515625 -0.921875 
Q 21.140625 -3.21875 18.609375 -3.21875 
Q 16.65625 -3.21875 15.15625 -1.84375 
Q 13.671875 -0.484375 13.671875 1.421875 
Q 13.671875 3.265625 16.796875 10.9375 
L 27.78125 37.84375 
Q 35.0625 53.8125 42.71875 62.453125 
L 43.65625 63.484375 
L 19.140625 63.96875 
L 8.15625 64.265625 
Q 3.421875 64.703125 3.421875 68.953125 
Q 3.421875 71 4.78125 72.3125 
Q 6.15625 73.640625 8.203125 73.640625 
Q 14.359375 73.640625 26.6875 73.25 
Q 39.015625 72.859375 45.171875 72.859375 
L 54.109375 72.859375 
Q 59.28125 72.859375 59.28125 69.78125 
Q 59.28125 67.484375 56.34375 63.765625 
z
" id="ComicSansMS-37"/>
      </defs>
      <g style="fill:#262626;" transform="translate(117.077003 185.88425)scale(0.1 -0.1)">
       <use xlink:href="#ComicSansMS-2212"/>
       <use x="48.046875" xlink:href="#ComicSansMS-37"/>
      </g>
     </g>
    </g>
    <g id="xtick_5">
     <g id="line2d_5"/>
     <g id="text_5">
      <!-- −6 -->
      <defs>
       <path d="M 29.15625 -3.515625 
Q 16.40625 -3.515625 10.40625 5.8125 
Q 5.421875 13.484375 5.421875 26.265625 
Q 5.421875 50.390625 25 68.109375 
L 29.59375 72.75 
Q 32.953125 75.984375 34.671875 75.984375 
Q 36.625 75.984375 38.078125 74.578125 
Q 39.546875 73.1875 39.59375 71.296875 
Q 39.703125 69.53125 34.625 64.5 
L 24.65625 54.78125 
Q 20.703125 50.78125 17.875 42.671875 
Q 22.125 44.625 25.296875 45.578125 
Q 28.46875 46.53125 30.515625 46.53125 
Q 41.9375 46.53125 48.046875 40.421875 
Q 54.15625 34.328125 54.15625 23.1875 
Q 54.15625 11.53125 47.5625 4.15625 
Q 40.671875 -3.515625 29.15625 -3.515625 
z
M 29.15625 36.578125 
Q 24.953125 36.578125 21.625 35.109375 
Q 20.359375 34.515625 15.234375 31.34375 
Q 14.9375 28.765625 14.9375 26.265625 
Q 14.9375 17.53125 17.875 12.015625 
Q 21.578125 4.984375 29.4375 4.984375 
Q 36.8125 4.984375 40.875 10.25 
Q 44.625 15.140625 44.625 23.1875 
Q 44.625 29.890625 40.765625 33.234375 
Q 36.921875 36.578125 29.15625 36.578125 
z
" id="ComicSansMS-36"/>
      </defs>
      <g style="fill:#262626;" transform="translate(133.30973 185.88425)scale(0.1 -0.1)">
       <use xlink:href="#ComicSansMS-2212"/>
       <use x="48.046875" xlink:href="#ComicSansMS-36"/>
      </g>
     </g>
    </g>
    <g id="xtick_6">
     <g id="line2d_6"/>
     <g id="text_6">
      <!-- −5 -->
      <defs>
       <path d="M 27.4375 -3.078125 
Q 13.578125 -3.078125 7.03125 7.171875 
Q 6.15625 8.59375 6.15625 9.90625 
Q 6.15625 11.8125 7.671875 13.203125 
Q 9.1875 14.59375 11.078125 14.59375 
Q 13.09375 14.59375 14.890625 12.453125 
Q 17.484375 9.328125 18.796875 8.453125 
Q 21.96875 6.296875 27.4375 6.296875 
Q 35.890625 6.296875 41.453125 12.75 
Q 46.78125 18.890625 46.78125 27.546875 
Q 46.78125 34.671875 44.4375 39.109375 
Q 41.40625 44.734375 35.109375 44.734375 
Q 29.890625 44.734375 26.5625 43.3125 
Q 23.921875 42.1875 21.234375 39.453125 
L 15.921875 33.640625 
Q 13.765625 31.453125 11.53125 31.453125 
Q 9.578125 31.453125 8.203125 32.84375 
Q 6.84375 34.234375 6.84375 36.1875 
Q 6.84375 37.15625 7.625 44.875 
Q 9.28125 60.25 9.28125 65.09375 
Q 9.28125 66.796875 8.421875 68.8125 
Q 7.5625 70.84375 7.5625 71.828125 
Q 7.5625 74.8125 12.703125 74.8125 
Q 13.671875 74.8125 15.640625 74.640625 
Q 17.625 74.46875 18.609375 74.46875 
Q 21.4375 74.46875 27.09375 74.65625 
Q 32.765625 74.859375 35.59375 74.859375 
Q 36.921875 74.859375 39.59375 74.75 
Q 42.28125 74.65625 43.609375 74.65625 
Q 44.53125 74.65625 46.28125 75.015625 
Q 48.046875 75.390625 48.921875 75.390625 
Q 50.828125 75.390625 52.296875 73.96875 
Q 53.765625 72.5625 53.765625 70.703125 
Q 53.765625 65.234375 42.1875 65.234375 
Q 40.671875 65.234375 38.375 65.328125 
Q 36.078125 65.4375 35.59375 65.4375 
L 27.34375 65.28125 
L 19.09375 65.046875 
Q 19.09375 62.84375 17.28125 48.78125 
Q 23.96875 54.109375 35.109375 54.109375 
Q 45.84375 54.109375 51.515625 45.703125 
Q 56.296875 38.578125 56.296875 27.546875 
Q 56.296875 14.359375 48.578125 5.8125 
Q 40.578125 -3.078125 27.4375 -3.078125 
z
" id="ComicSansMS-35"/>
      </defs>
      <g style="fill:#262626;" transform="translate(149.542457 185.88425)scale(0.1 -0.1)">
       <use xlink:href="#ComicSansMS-2212"/>
       <use x="48.046875" xlink:href="#ComicSansMS-35"/>
      </g>
     </g>
    </g>
    <g id="xtick_7">
     <g id="line2d_7"/>
     <g id="text_7">
      <!-- −4 -->
      <defs>
       <path d="M 47.078125 21.34375 
L 47.078125 3.265625 
Q 47.078125 -1.265625 42.625 -1.265625 
Q 37.453125 -1.265625 37.453125 5.8125 
Q 37.453125 6.6875 37.546875 8.296875 
Q 37.640625 9.90625 37.640625 10.5 
L 37.59375 21.578125 
L 16.0625 22.125 
Q 9.375 22.125 6.78125 22.5625 
Q 2.34375 23.296875 2.34375 26.03125 
Q 2.34375 28.21875 5.03125 31.59375 
L 9.234375 36.578125 
L 33.25 71.625 
Q 36.53125 76.171875 41.546875 76.171875 
Q 47.078125 76.171875 47.078125 71.390625 
L 47.078125 30.8125 
Q 47.90625 30.859375 49.078125 30.859375 
Q 58.0625 30.859375 58.0625 26.03125 
Q 58.0625 22.515625 54.34375 21.578125 
Q 52.6875 21.140625 47.078125 21.34375 
z
M 37.59375 62.640625 
Q 24.5625 41.84375 17.234375 31.5 
L 37.59375 31 
z
" id="ComicSansMS-34"/>
      </defs>
      <g style="fill:#262626;" transform="translate(165.775185 185.88425)scale(0.1 -0.1)">
       <use xlink:href="#ComicSansMS-2212"/>
       <use x="48.046875" xlink:href="#ComicSansMS-34"/>
      </g>
     </g>
    </g>
    <g id="xtick_8">
     <g id="line2d_8"/>
     <g id="text_8">
      <!-- −3 -->
      <defs>
       <path d="M 29.546875 -2.25 
Q 22.171875 -2.25 16.3125 0.828125 
Q 9.71875 4.390625 7.421875 10.84375 
Q 7.125 11.71875 7.125 12.546875 
Q 7.125 14.5 8.609375 15.796875 
Q 10.109375 17.09375 12.0625 17.09375 
Q 14.015625 17.09375 15.4375 15.28125 
L 17.671875 11.921875 
Q 19.4375 9.515625 22.40625 8.3125 
Q 25.390625 7.125 29.546875 7.125 
Q 34.859375 7.125 38.875 10.453125 
Q 43.109375 13.96875 43.109375 19.046875 
Q 43.109375 26.421875 37.703125 30.8125 
Q 32.90625 34.625 25 35.453125 
Q 19.578125 35.984375 19.578125 39.84375 
Q 19.578125 42.71875 23.828125 44.234375 
L 35.5 47.125 
Q 38.875 48.34375 40.578125 50.40625 
Q 42.28125 52.484375 42.328125 55.46875 
Q 42.4375 59.765625 39.015625 62.40625 
Q 35.453125 65.140625 29 65.140625 
Q 25.6875 65.140625 22.5625 63.53125 
L 17.046875 60.0625 
Q 15.4375 59.03125 14.453125 59.03125 
Q 12.5 59.03125 11.109375 60.515625 
Q 9.71875 62.015625 9.71875 63.921875 
Q 9.71875 67.78125 17.1875 71.34375 
Q 23.6875 74.515625 27.875 74.515625 
Q 38.375 74.515625 44.53125 69.875 
Q 51.125 64.890625 51.125 55.671875 
Q 51.125 44.1875 41.84375 40.53125 
Q 41.015625 40.1875 39.9375 39.84375 
Q 46.4375 37.453125 49.65625 32.6875 
Q 52.875 27.9375 52.875 20.796875 
Q 52.875 11.1875 46.09375 4.46875 
Q 39.3125 -2.25 29.546875 -2.25 
z
" id="ComicSansMS-33"/>
      </defs>
      <g style="fill:#262626;" transform="translate(182.007912 185.88425)scale(0.1 -0.1)">
       <use xlink:href="#ComicSansMS-2212"/>
       <use x="48.046875" xlink:href="#ComicSansMS-33"/>
      </g>
     </g>
    </g>
    <g id="xtick_9">
     <g id="line2d_9"/>
     <g id="text_9">
      <!-- −2 -->
      <defs>
       <path d="M 49.21875 -0.09375 
Q 48 -0.09375 45.78125 0.65625 
Q 43.5625 1.421875 42.390625 1.421875 
Q 39.890625 1.421875 34.90625 1.125 
Q 29.9375 0.828125 27.390625 0.828125 
Q 25.484375 0.828125 21.75 0.34375 
Q 18.015625 -0.140625 16.109375 -0.140625 
Q 15.578125 -0.140625 14.546875 0.046875 
Q 13.53125 0.25 12.984375 0.25 
Q 9.625 0.25 8.59375 3.515625 
Q 8.015625 5.21875 8.015625 9.375 
Q 8.015625 20.75 14.203125 27.6875 
Q 17.046875 30.859375 29.5 39.40625 
Q 36.46875 44.1875 38.8125 46.875 
Q 43.015625 51.5625 43.015625 57.859375 
Q 43.015625 60.984375 38.96875 63.421875 
Q 35.40625 65.625 31.984375 65.625 
Q 27.484375 65.625 23.4375 63.03125 
L 16.453125 57.5625 
Q 14.359375 55.90625 13.09375 55.90625 
Q 8.0625 55.90625 8.0625 59.90625 
Q 8.0625 62.203125 9.90625 63.875 
Q 15.625 69.234375 19.828125 71.625 
Q 25.734375 75 31.984375 75 
Q 39.890625 75 46.09375 70.703125 
Q 53.03125 65.875 53.03125 58.296875 
Q 53.03125 53.328125 51.609375 49.125 
Q 50.203125 44.921875 47.3125 41.453125 
Q 43.65625 37.0625 34.90625 31.640625 
Q 25.734375 25.875 22.859375 22.90625 
Q 17.4375 17.28125 17.53125 9.28125 
L 27.59375 10.203125 
Q 37.9375 10.796875 42.390625 10.796875 
Q 46.09375 10.796875 49.421875 9.515625 
Q 53.8125 7.8125 53.8125 4.78125 
Q 53.8125 2.875 52.484375 1.390625 
Q 51.171875 -0.09375 49.21875 -0.09375 
z
" id="ComicSansMS-32"/>
      </defs>
      <g style="fill:#262626;" transform="translate(198.240639 185.88425)scale(0.1 -0.1)">
       <use xlink:href="#ComicSansMS-2212"/>
       <use x="48.046875" xlink:href="#ComicSansMS-32"/>
      </g>
     </g>
    </g>
    <g id="xtick_10">
     <g id="line2d_10"/>
     <g id="text_10">
      <!-- −1 -->
      <g style="fill:#262626;" transform="translate(215.274148 185.88425)scale(0.1 -0.1)">
       <use xlink:href="#ComicSansMS-2212"/>
       <use x="48.046875" xlink:href="#ComicSansMS-31"/>
      </g>
     </g>
    </g>
    <g id="xtick_11">
     <g id="line2d_11"/>
     <g id="text_11">
      <!-- 0 -->
      <g style="fill:#262626;" transform="translate(233.108438 185.88425)scale(0.1 -0.1)">
       <use xlink:href="#ComicSansMS-30"/>
      </g>
     </g>
    </g>
    <g id="xtick_12">
     <g id="line2d_12"/>
     <g id="text_12">
      <!-- 1 -->
      <g style="fill:#262626;" transform="translate(250.141946 185.88425)scale(0.1 -0.1)">
       <use xlink:href="#ComicSansMS-31"/>
      </g>
     </g>
    </g>
    <g id="xtick_13">
     <g id="line2d_13"/>
     <g id="text_13">
      <!-- 2 -->
      <g style="fill:#262626;" transform="translate(265.573892 185.88425)scale(0.1 -0.1)">
       <use xlink:href="#ComicSansMS-32"/>
      </g>
     </g>
    </g>
    <g id="xtick_14">
     <g id="line2d_14"/>
     <g id="text_14">
      <!-- 3 -->
      <g style="fill:#262626;" transform="translate(281.806619 185.88425)scale(0.1 -0.1)">
       <use xlink:href="#ComicSansMS-33"/>
      </g>
     </g>
    </g>
    <g id="xtick_15">
     <g id="line2d_15"/>
     <g id="text_15">
      <!-- 4 -->
      <g style="fill:#262626;" transform="translate(298.039347 185.88425)scale(0.1 -0.1)">
       <use xlink:href="#ComicSansMS-34"/>
      </g>
     </g>
    </g>
    <g id="xtick_16">
     <g id="line2d_16"/>
     <g id="text_16">
      <!-- 5 -->
      <g style="fill:#262626;" transform="translate(314.272074 185.88425)scale(0.1 -0.1)">
       <use xlink:href="#ComicSansMS-35"/>
      </g>
     </g>
    </g>
    <g id="xtick_17">
     <g id="line2d_17"/>
     <g id="text_17">
      <!-- 6 -->
      <g style="fill:#262626;" transform="translate(330.504801 185.88425)scale(0.1 -0.1)">
       <use xlink:href="#ComicSansMS-36"/>
      </g>
     </g>
    </g>
    <g id="xtick_18">
     <g id="line2d_18"/>
     <g id="text_18">
      <!-- 7 -->
      <g style="fill:#262626;" transform="translate(346.737528 185.88425)scale(0.1 -0.1)">
       <use xlink:href="#ComicSansMS-37"/>
      </g>
     </g>
    </g>
    <g id="xtick_19">
     <g id="line2d_19"/>
     <g id="text_19">
      <!-- 8 -->
      <g style="fill:#262626;" transform="translate(362.970256 185.88425)scale(0.1 -0.1)">
       <use xlink:href="#ComicSansMS-38"/>
      </g>
     </g>
    </g>
    <g id="xtick_20">
     <g id="line2d_20"/>
     <g id="text_20">
      <!-- 9 -->
      <g style="fill:#262626;" transform="translate(379.202983 185.88425)scale(0.1 -0.1)">
       <use xlink:href="#ComicSansMS-39"/>
      </g>
     </g>
    </g>
    <g id="xtick_21">
     <g id="line2d_21"/>
     <g id="text_21">
      <!-- 10 -->
      <g style="fill:#262626;" transform="translate(393.184929 185.88425)scale(0.1 -0.1)">
       <use xlink:href="#ComicSansMS-31"/>
       <use x="45.019531" xlink:href="#ComicSansMS-30"/>
      </g>
     </g>
    </g>
   </g>
   <g id="matplotlib.axis_2">
    <g id="ytick_1">
     <g id="line2d_22"/>
     <g id="text_22">
      <!-- −10 -->
      <g style="fill:#262626;" transform="translate(217.250625 311.512125)scale(0.1 -0.1)">
       <use xlink:href="#ComicSansMS-2212"/>
       <use x="48.046875" xlink:href="#ComicSansMS-31"/>
       <use x="93.066406" xlink:href="#ComicSansMS-30"/>
      </g>
     </g>
    </g>
    <g id="ytick_2">
     <g id="line2d_23"/>
     <g id="text_23">
      <!-- −9 -->
      <g style="fill:#262626;" transform="translate(221.752187 298.206525)scale(0.1 -0.1)">
       <use xlink:href="#ComicSansMS-2212"/>
       <use x="48.046875" xlink:href="#ComicSansMS-39"/>
      </g>
     </g>
    </g>
    <g id="ytick_3">
     <g id="line2d_24"/>
     <g id="text_24">
      <!-- −8 -->
      <g style="fill:#262626;" transform="translate(221.752187 284.900925)scale(0.1 -0.1)">
       <use xlink:href="#ComicSansMS-2212"/>
       <use x="48.046875" xlink:href="#ComicSansMS-38"/>
      </g>
     </g>
    </g>
    <g id="ytick_4">
     <g id="line2d_25"/>
     <g id="text_25">
      <!-- −7 -->
      <g style="fill:#262626;" transform="translate(221.752187 271.595325)scale(0.1 -0.1)">
       <use xlink:href="#ComicSansMS-2212"/>
       <use x="48.046875" xlink:href="#ComicSansMS-37"/>
      </g>
     </g>
    </g>
    <g id="ytick_5">
     <g id="line2d_26"/>
     <g id="text_26">
      <!-- −6 -->
      <g style="fill:#262626;" transform="translate(221.752187 258.289725)scale(0.1 -0.1)">
       <use xlink:href="#ComicSansMS-2212"/>
       <use x="48.046875" xlink:href="#ComicSansMS-36"/>
      </g>
     </g>
    </g>
    <g id="ytick_6">
     <g id="line2d_27"/>
     <g id="text_27">
      <!-- −5 -->
      <g style="fill:#262626;" transform="translate(221.752187 244.984125)scale(0.1 -0.1)">
       <use xlink:href="#ComicSansMS-2212"/>
       <use x="48.046875" xlink:href="#ComicSansMS-35"/>
      </g>
     </g>
    </g>
    <g id="ytick_7">
     <g id="line2d_28"/>
     <g id="text_28">
      <!-- −4 -->
      <g style="fill:#262626;" transform="translate(221.752187 231.678525)scale(0.1 -0.1)">
       <use xlink:href="#ComicSansMS-2212"/>
       <use x="48.046875" xlink:href="#ComicSansMS-34"/>
      </g>
     </g>
    </g>
    <g id="ytick_8">
     <g id="line2d_29"/>
     <g id="text_29">
      <!-- −3 -->
      <g style="fill:#262626;" transform="translate(221.752187 218.372925)scale(0.1 -0.1)">
       <use xlink:href="#ComicSansMS-2212"/>
       <use x="48.046875" xlink:href="#ComicSansMS-33"/>
      </g>
     </g>
    </g>
    <g id="ytick_9">
     <g id="line2d_30"/>
     <g id="text_30">
      <!-- −2 -->
      <g style="fill:#262626;" transform="translate(221.752187 205.067325)scale(0.1 -0.1)">
       <use xlink:href="#ComicSansMS-2212"/>
       <use x="48.046875" xlink:href="#ComicSansMS-32"/>
      </g>
     </g>
    </g>
    <g id="ytick_10">
     <g id="line2d_31"/>
     <g id="text_31">
      <!-- −1 -->
      <g style="fill:#262626;" transform="translate(223.35375 191.761725)scale(0.1 -0.1)">
       <use xlink:href="#ComicSansMS-2212"/>
       <use x="48.046875" xlink:href="#ComicSansMS-31"/>
      </g>
     </g>
    </g>
    <g id="ytick_11">
     <g id="line2d_32"/>
     <g id="text_32">
      <!-- 0 -->
      <g style="fill:#262626;" transform="translate(226.556875 178.456125)scale(0.1 -0.1)">
       <use xlink:href="#ComicSansMS-30"/>
      </g>
     </g>
    </g>
    <g id="ytick_12">
     <g id="line2d_33"/>
     <g id="text_33">
      <!-- 1 -->
      <g style="fill:#262626;" transform="translate(228.158437 165.150525)scale(0.1 -0.1)">
       <use xlink:href="#ComicSansMS-31"/>
      </g>
     </g>
    </g>
    <g id="ytick_13">
     <g id="line2d_34"/>
     <g id="text_34">
      <!-- 2 -->
      <g style="fill:#262626;" transform="translate(226.556875 151.844925)scale(0.1 -0.1)">
       <use xlink:href="#ComicSansMS-32"/>
      </g>
     </g>
    </g>
    <g id="ytick_14">
     <g id="line2d_35"/>
     <g id="text_35">
      <!-- 3 -->
      <g style="fill:#262626;" transform="translate(226.556875 138.539325)scale(0.1 -0.1)">
       <use xlink:href="#ComicSansMS-33"/>
      </g>
     </g>
    </g>
    <g id="ytick_15">
     <g id="line2d_36"/>
     <g id="text_36">
      <!-- 4 -->
      <g style="fill:#262626;" transform="translate(226.556875 125.233725)scale(0.1 -0.1)">
       <use xlink:href="#ComicSansMS-34"/>
      </g>
     </g>
    </g>
    <g id="ytick_16">
     <g id="line2d_37"/>
     <g id="text_37">
      <!-- 5 -->
      <g style="fill:#262626;" transform="translate(226.556875 111.928125)scale(0.1 -0.1)">
       <use xlink:href="#ComicSansMS-35"/>
      </g>
     </g>
    </g>
    <g id="ytick_17">
     <g id="line2d_38"/>
     <g id="text_38">
      <!-- 6 -->
      <g style="fill:#262626;" transform="translate(226.556875 98.622525)scale(0.1 -0.1)">
       <use xlink:href="#ComicSansMS-36"/>
      </g>
     </g>
    </g>
    <g id="ytick_18">
     <g id="line2d_39"/>
     <g id="text_39">
      <!-- 7 -->
      <g style="fill:#262626;" transform="translate(226.556875 85.316925)scale(0.1 -0.1)">
       <use xlink:href="#ComicSansMS-37"/>
      </g>
     </g>
    </g>
    <g id="ytick_19">
     <g id="line2d_40"/>
     <g id="text_40">
      <!-- 8 -->
      <g style="fill:#262626;" transform="translate(226.556875 72.011325)scale(0.1 -0.1)">
       <use xlink:href="#ComicSansMS-38"/>
      </g>
     </g>
    </g>
    <g id="ytick_20">
     <g id="line2d_41"/>
     <g id="text_41">
      <!-- 9 -->
      <g style="fill:#262626;" transform="translate(226.556875 58.705725)scale(0.1 -0.1)">
       <use xlink:href="#ComicSansMS-39"/>
      </g>
     </g>
    </g>
    <g id="ytick_21">
     <g id="line2d_42"/>
     <g id="text_42">
      <!-- 10 -->
      <g style="fill:#262626;" transform="translate(222.055312 45.400125)scale(0.1 -0.1)">
       <use xlink:href="#ComicSansMS-31"/>
       <use x="45.019531" xlink:href="#ComicSansMS-30"/>
      </g>
     </g>
    </g>
   </g>
   <g id="PathCollection_1">
    <path clip-path="url(#p82d29648fe)" d="M 0 349.135534 
C 0.937635 349.135534 1.836992 348.763008 2.5 348.1 
C 3.163008 347.436992 3.535534 346.537635 3.535534 345.6 
C 3.535534 344.662365 3.163008 343.763008 2.5 343.1 
C 1.836992 342.436992 0.937635 342.064466 0 342.064466 
C -0.937635 342.064466 -1.836992 342.436992 -2.5 343.1 
C -3.163008 343.763008 -3.535534 344.662365 -3.535534 345.6 
C -3.535534 346.537635 -3.163008 347.436992 -2.5 348.1 
C -1.836992 348.763008 -0.937635 349.135534 0 349.135534 
z
" style="fill:none;stroke:#800080;"/>
   </g>
   <g id="PathCollection_2"/>
   <g id="PathCollection_3"/>
   <g id="line2d_43">
    <path clip-path="url(#p82d29648fe)" d="M 73.832727 307.584 
L 398.487273 41.472 
L 398.487273 41.472 
" style="fill:none;stroke:#ff0000;stroke-linecap:round;stroke-width:1.5;"/>
   </g>
   <g id="line2d_44">
    <path clip-path="url(#p82d29648fe)" d="M 73.832727 161.2224 
L 398.487273 161.2224 
L 398.487273 161.2224 
" style="fill:none;stroke:#0000ff;stroke-linecap:round;stroke-width:1.5;"/>
   </g>
   <g id="line2d_45">
    <path clip-path="url(#p82d29648fe)" d="M 73.832727 174.528 
L 398.487273 174.528 
L 398.487273 174.528 
" style="fill:none;stroke:#008000;stroke-linecap:round;stroke-width:1.5;"/>
   </g>
   <g id="patch_3">
    <path d="M 236.16 307.584 
L 236.16 41.472 
" style="fill:none;stroke:#cccccc;stroke-linecap:square;stroke-linejoin:miter;"/>
   </g>
   <g id="patch_4">
    <path d="M 414.72 307.584 
L 414.72 41.472 
" style="fill:none;"/>
   </g>
   <g id="patch_5">
    <path d="M 57.6 174.528 
L 414.72 174.528 
" style="fill:none;stroke:#cccccc;stroke-linecap:square;stroke-linejoin:miter;"/>
   </g>
   <g id="patch_6">
    <path d="M 57.6 41.472 
L 414.72 41.472 
" style="fill:none;"/>
   </g>
   <g id="legend_1">
    <g id="line2d_46">
     <path d="M 66.6 54.129813 
L 86.6 54.129813 
" style="fill:none;stroke:#ff0000;stroke-linecap:round;stroke-width:1.5;"/>
    </g>
    <g id="line2d_47"/>
    <g id="text_43">
     <!-- Function -->
     <defs>
      <path d="M 8.203125 0 
L 8.203125 71.578125 
L 56.5 71.578125 
L 56.5 63.140625 
L 17.671875 63.140625 
L 17.671875 40.96875 
L 51.265625 40.96875 
L 51.265625 32.515625 
L 17.671875 32.515625 
L 17.671875 0 
z
" id="ArialMT-46"/>
      <path d="M 40.578125 0 
L 40.578125 7.625 
Q 34.515625 -1.171875 24.125 -1.171875 
Q 19.53125 -1.171875 15.546875 0.578125 
Q 11.578125 2.34375 9.640625 5 
Q 7.71875 7.671875 6.9375 11.53125 
Q 6.390625 14.109375 6.390625 19.734375 
L 6.390625 51.859375 
L 15.1875 51.859375 
L 15.1875 23.09375 
Q 15.1875 16.21875 15.71875 13.8125 
Q 16.546875 10.359375 19.234375 8.375 
Q 21.921875 6.390625 25.875 6.390625 
Q 29.828125 6.390625 33.296875 8.421875 
Q 36.765625 10.453125 38.203125 13.9375 
Q 39.65625 17.4375 39.65625 24.078125 
L 39.65625 51.859375 
L 48.4375 51.859375 
L 48.4375 0 
z
" id="ArialMT-75"/>
      <path d="M 6.59375 0 
L 6.59375 51.859375 
L 14.5 51.859375 
L 14.5 44.484375 
Q 20.21875 53.03125 31 53.03125 
Q 35.6875 53.03125 39.625 51.34375 
Q 43.5625 49.65625 45.515625 46.921875 
Q 47.46875 44.1875 48.25 40.4375 
Q 48.734375 37.984375 48.734375 31.890625 
L 48.734375 0 
L 39.9375 0 
L 39.9375 31.546875 
Q 39.9375 36.921875 38.90625 39.578125 
Q 37.890625 42.234375 35.28125 43.8125 
Q 32.671875 45.40625 29.15625 45.40625 
Q 23.53125 45.40625 19.453125 41.84375 
Q 15.375 38.28125 15.375 28.328125 
L 15.375 0 
z
" id="ArialMT-6e"/>
      <path d="M 40.4375 19 
L 49.078125 17.875 
Q 47.65625 8.9375 41.8125 3.875 
Q 35.984375 -1.171875 27.484375 -1.171875 
Q 16.84375 -1.171875 10.375 5.78125 
Q 3.90625 12.75 3.90625 25.734375 
Q 3.90625 34.125 6.6875 40.421875 
Q 9.46875 46.734375 15.15625 49.875 
Q 20.84375 53.03125 27.546875 53.03125 
Q 35.984375 53.03125 41.359375 48.75 
Q 46.734375 44.484375 48.25 36.625 
L 39.703125 35.296875 
Q 38.484375 40.53125 35.375 43.15625 
Q 32.28125 45.796875 27.875 45.796875 
Q 21.234375 45.796875 17.078125 41.03125 
Q 12.9375 36.28125 12.9375 25.984375 
Q 12.9375 15.53125 16.9375 10.796875 
Q 20.953125 6.0625 27.390625 6.0625 
Q 32.5625 6.0625 36.03125 9.234375 
Q 39.5 12.40625 40.4375 19 
z
" id="ArialMT-63"/>
      <path d="M 25.78125 7.859375 
L 27.046875 0.09375 
Q 23.34375 -0.6875 20.40625 -0.6875 
Q 15.625 -0.6875 12.984375 0.828125 
Q 10.359375 2.34375 9.28125 4.8125 
Q 8.203125 7.28125 8.203125 15.1875 
L 8.203125 45.015625 
L 1.765625 45.015625 
L 1.765625 51.859375 
L 8.203125 51.859375 
L 8.203125 64.703125 
L 16.9375 69.96875 
L 16.9375 51.859375 
L 25.78125 51.859375 
L 25.78125 45.015625 
L 16.9375 45.015625 
L 16.9375 14.703125 
Q 16.9375 10.9375 17.40625 9.859375 
Q 17.875 8.796875 18.921875 8.15625 
Q 19.96875 7.515625 21.921875 7.515625 
Q 23.390625 7.515625 25.78125 7.859375 
z
" id="ArialMT-74"/>
      <path d="M 6.640625 61.46875 
L 6.640625 71.578125 
L 15.4375 71.578125 
L 15.4375 61.46875 
z
M 6.640625 0 
L 6.640625 51.859375 
L 15.4375 51.859375 
L 15.4375 0 
z
" id="ArialMT-69"/>
      <path d="M 3.328125 25.921875 
Q 3.328125 40.328125 11.328125 47.265625 
Q 18.015625 53.03125 27.640625 53.03125 
Q 38.328125 53.03125 45.109375 46.015625 
Q 51.90625 39.015625 51.90625 26.65625 
Q 51.90625 16.65625 48.90625 10.90625 
Q 45.90625 5.171875 40.15625 2 
Q 34.421875 -1.171875 27.640625 -1.171875 
Q 16.75 -1.171875 10.03125 5.8125 
Q 3.328125 12.796875 3.328125 25.921875 
z
M 12.359375 25.921875 
Q 12.359375 15.96875 16.703125 11.015625 
Q 21.046875 6.0625 27.640625 6.0625 
Q 34.1875 6.0625 38.53125 11.03125 
Q 42.875 16.015625 42.875 26.21875 
Q 42.875 35.84375 38.5 40.796875 
Q 34.125 45.75 27.640625 45.75 
Q 21.046875 45.75 16.703125 40.8125 
Q 12.359375 35.890625 12.359375 25.921875 
z
" id="ArialMT-6f"/>
     </defs>
     <g style="fill:#262626;" transform="translate(94.6 57.629813)scale(0.1 -0.1)">
      <use xlink:href="#ArialMT-46"/>
      <use x="61.083984" xlink:href="#ArialMT-75"/>
      <use x="116.699219" xlink:href="#ArialMT-6e"/>
      <use x="172.314453" xlink:href="#ArialMT-63"/>
      <use x="222.314453" xlink:href="#ArialMT-74"/>
      <use x="250.097656" xlink:href="#ArialMT-69"/>
      <use x="272.314453" xlink:href="#ArialMT-6f"/>
      <use x="327.929688" xlink:href="#ArialMT-6e"/>
     </g>
    </g>
    <g id="line2d_48">
     <path d="M 66.6 68.275125 
L 86.6 68.275125 
" style="fill:none;stroke:#0000ff;stroke-linecap:round;stroke-width:1.5;"/>
    </g>
    <g id="line2d_49"/>
    <g id="text_44">
     <!-- First Derivative -->
     <defs>
      <path d="M 6.5 0 
L 6.5 51.859375 
L 14.40625 51.859375 
L 14.40625 44 
Q 17.4375 49.515625 20 51.265625 
Q 22.5625 53.03125 25.640625 53.03125 
Q 30.078125 53.03125 34.671875 50.203125 
L 31.640625 42.046875 
Q 28.421875 43.953125 25.203125 43.953125 
Q 22.3125 43.953125 20.015625 42.21875 
Q 17.71875 40.484375 16.75 37.40625 
Q 15.28125 32.71875 15.28125 27.15625 
L 15.28125 0 
z
" id="ArialMT-72"/>
      <path d="M 3.078125 15.484375 
L 11.765625 16.84375 
Q 12.5 11.625 15.84375 8.84375 
Q 19.1875 6.0625 25.203125 6.0625 
Q 31.25 6.0625 34.171875 8.515625 
Q 37.109375 10.984375 37.109375 14.3125 
Q 37.109375 17.28125 34.515625 19 
Q 32.71875 20.171875 25.53125 21.96875 
Q 15.875 24.421875 12.140625 26.203125 
Q 8.40625 27.984375 6.46875 31.125 
Q 4.546875 34.28125 4.546875 38.09375 
Q 4.546875 41.546875 6.125 44.5 
Q 7.71875 47.46875 10.453125 49.421875 
Q 12.5 50.921875 16.03125 51.96875 
Q 19.578125 53.03125 23.640625 53.03125 
Q 29.734375 53.03125 34.34375 51.265625 
Q 38.96875 49.515625 41.15625 46.5 
Q 43.359375 43.5 44.1875 38.484375 
L 35.59375 37.3125 
Q 35.015625 41.3125 32.203125 43.546875 
Q 29.390625 45.796875 24.265625 45.796875 
Q 18.21875 45.796875 15.625 43.796875 
Q 13.03125 41.796875 13.03125 39.109375 
Q 13.03125 37.40625 14.109375 36.03125 
Q 15.1875 34.625 17.484375 33.6875 
Q 18.796875 33.203125 25.25 31.453125 
Q 34.578125 28.953125 38.25 27.359375 
Q 41.9375 25.78125 44.03125 22.75 
Q 46.140625 19.734375 46.140625 15.234375 
Q 46.140625 10.84375 43.578125 6.953125 
Q 41.015625 3.078125 36.171875 0.953125 
Q 31.34375 -1.171875 25.25 -1.171875 
Q 15.140625 -1.171875 9.84375 3.03125 
Q 4.546875 7.234375 3.078125 15.484375 
z
" id="ArialMT-73"/>
      <path id="ArialMT-20"/>
      <path d="M 7.71875 0 
L 7.71875 71.578125 
L 32.375 71.578125 
Q 40.71875 71.578125 45.125 70.5625 
Q 51.265625 69.140625 55.609375 65.4375 
Q 61.28125 60.640625 64.078125 53.1875 
Q 66.890625 45.75 66.890625 36.1875 
Q 66.890625 28.03125 64.984375 21.734375 
Q 63.09375 15.4375 60.109375 11.296875 
Q 57.125 7.171875 53.578125 4.796875 
Q 50.046875 2.4375 45.046875 1.21875 
Q 40.046875 0 33.546875 0 
z
M 17.1875 8.453125 
L 32.46875 8.453125 
Q 39.546875 8.453125 43.578125 9.765625 
Q 47.609375 11.078125 50 13.484375 
Q 53.375 16.84375 55.25 22.53125 
Q 57.125 28.21875 57.125 36.328125 
Q 57.125 47.5625 53.4375 53.59375 
Q 49.75 59.625 44.484375 61.671875 
Q 40.671875 63.140625 32.234375 63.140625 
L 17.1875 63.140625 
z
" id="ArialMT-44"/>
      <path d="M 42.09375 16.703125 
L 51.171875 15.578125 
Q 49.03125 7.625 43.21875 3.21875 
Q 37.40625 -1.171875 28.375 -1.171875 
Q 17 -1.171875 10.328125 5.828125 
Q 3.65625 12.84375 3.65625 25.484375 
Q 3.65625 38.578125 10.390625 45.796875 
Q 17.140625 53.03125 27.875 53.03125 
Q 38.28125 53.03125 44.875 45.953125 
Q 51.46875 38.875 51.46875 26.03125 
Q 51.46875 25.25 51.421875 23.6875 
L 12.75 23.6875 
Q 13.234375 15.140625 17.578125 10.59375 
Q 21.921875 6.0625 28.421875 6.0625 
Q 33.25 6.0625 36.671875 8.59375 
Q 40.09375 11.140625 42.09375 16.703125 
z
M 13.234375 30.90625 
L 42.1875 30.90625 
Q 41.609375 37.453125 38.875 40.71875 
Q 34.671875 45.796875 27.984375 45.796875 
Q 21.921875 45.796875 17.796875 41.75 
Q 13.671875 37.703125 13.234375 30.90625 
z
" id="ArialMT-65"/>
      <path d="M 21 0 
L 1.265625 51.859375 
L 10.546875 51.859375 
L 21.6875 20.796875 
Q 23.484375 15.765625 25 10.359375 
Q 26.171875 14.453125 28.265625 20.21875 
L 39.796875 51.859375 
L 48.828125 51.859375 
L 29.203125 0 
z
" id="ArialMT-76"/>
      <path d="M 40.4375 6.390625 
Q 35.546875 2.25 31.03125 0.53125 
Q 26.515625 -1.171875 21.34375 -1.171875 
Q 12.796875 -1.171875 8.203125 3 
Q 3.609375 7.171875 3.609375 13.671875 
Q 3.609375 17.484375 5.34375 20.625 
Q 7.078125 23.78125 9.890625 25.6875 
Q 12.703125 27.59375 16.21875 28.5625 
Q 18.796875 29.25 24.03125 29.890625 
Q 34.671875 31.15625 39.703125 32.90625 
Q 39.75 34.71875 39.75 35.203125 
Q 39.75 40.578125 37.25 42.78125 
Q 33.890625 45.75 27.25 45.75 
Q 21.046875 45.75 18.09375 43.578125 
Q 15.140625 41.40625 13.71875 35.890625 
L 5.125 37.0625 
Q 6.296875 42.578125 8.984375 45.96875 
Q 11.671875 49.359375 16.75 51.1875 
Q 21.828125 53.03125 28.515625 53.03125 
Q 35.15625 53.03125 39.296875 51.46875 
Q 43.453125 49.90625 45.40625 47.53125 
Q 47.359375 45.171875 48.140625 41.546875 
Q 48.578125 39.3125 48.578125 33.453125 
L 48.578125 21.734375 
Q 48.578125 9.46875 49.140625 6.21875 
Q 49.703125 2.984375 51.375 0 
L 42.1875 0 
Q 40.828125 2.734375 40.4375 6.390625 
z
M 39.703125 26.03125 
Q 34.90625 24.078125 25.34375 22.703125 
Q 19.921875 21.921875 17.671875 20.9375 
Q 15.4375 19.96875 14.203125 18.09375 
Q 12.984375 16.21875 12.984375 13.921875 
Q 12.984375 10.40625 15.640625 8.0625 
Q 18.3125 5.71875 23.4375 5.71875 
Q 28.515625 5.71875 32.46875 7.9375 
Q 36.421875 10.15625 38.28125 14.015625 
Q 39.703125 17 39.703125 22.796875 
z
" id="ArialMT-61"/>
     </defs>
     <g style="fill:#262626;" transform="translate(94.6 71.775125)scale(0.1 -0.1)">
      <use xlink:href="#ArialMT-46"/>
      <use x="61.083984" xlink:href="#ArialMT-69"/>
      <use x="83.300781" xlink:href="#ArialMT-72"/>
      <use x="116.601562" xlink:href="#ArialMT-73"/>
      <use x="166.601562" xlink:href="#ArialMT-74"/>
      <use x="194.384766" xlink:href="#ArialMT-20"/>
      <use x="222.167969" xlink:href="#ArialMT-44"/>
      <use x="294.384766" xlink:href="#ArialMT-65"/>
      <use x="350" xlink:href="#ArialMT-72"/>
      <use x="383.300781" xlink:href="#ArialMT-69"/>
      <use x="405.517578" xlink:href="#ArialMT-76"/>
      <use x="455.517578" xlink:href="#ArialMT-61"/>
      <use x="511.132812" xlink:href="#ArialMT-74"/>
      <use x="538.916016" xlink:href="#ArialMT-69"/>
      <use x="561.132812" xlink:href="#ArialMT-76"/>
      <use x="611.132812" xlink:href="#ArialMT-65"/>
     </g>
    </g>
    <g id="line2d_50">
     <path d="M 66.6 82.420437 
L 86.6 82.420437 
" style="fill:none;stroke:#008000;stroke-linecap:round;stroke-width:1.5;"/>
    </g>
    <g id="line2d_51"/>
    <g id="text_45">
     <!-- Second Derivative -->
     <defs>
      <path d="M 4.5 23 
L 13.421875 23.78125 
Q 14.0625 18.40625 16.375 14.96875 
Q 18.703125 11.53125 23.578125 9.40625 
Q 28.46875 7.28125 34.578125 7.28125 
Q 39.984375 7.28125 44.140625 8.890625 
Q 48.296875 10.5 50.3125 13.296875 
Q 52.34375 16.109375 52.34375 19.4375 
Q 52.34375 22.796875 50.390625 25.3125 
Q 48.4375 27.828125 43.953125 29.546875 
Q 41.0625 30.671875 31.203125 33.03125 
Q 21.34375 35.40625 17.390625 37.5 
Q 12.25 40.1875 9.734375 44.15625 
Q 7.234375 48.140625 7.234375 53.078125 
Q 7.234375 58.5 10.296875 63.203125 
Q 13.375 67.921875 19.28125 70.359375 
Q 25.203125 72.796875 32.421875 72.796875 
Q 40.375 72.796875 46.453125 70.234375 
Q 52.546875 67.671875 55.8125 62.6875 
Q 59.078125 57.71875 59.328125 51.421875 
L 50.25 50.734375 
Q 49.515625 57.515625 45.28125 60.984375 
Q 41.0625 64.453125 32.8125 64.453125 
Q 24.21875 64.453125 20.28125 61.296875 
Q 16.359375 58.15625 16.359375 53.71875 
Q 16.359375 49.859375 19.140625 47.359375 
Q 21.875 44.875 33.421875 42.265625 
Q 44.96875 39.65625 49.265625 37.703125 
Q 55.515625 34.8125 58.484375 30.390625 
Q 61.46875 25.984375 61.46875 20.21875 
Q 61.46875 14.5 58.203125 9.4375 
Q 54.9375 4.390625 48.796875 1.578125 
Q 42.671875 -1.21875 35.015625 -1.21875 
Q 25.296875 -1.21875 18.71875 1.609375 
Q 12.15625 4.4375 8.421875 10.125 
Q 4.6875 15.828125 4.5 23 
z
" id="ArialMT-53"/>
      <path d="M 40.234375 0 
L 40.234375 6.546875 
Q 35.296875 -1.171875 25.734375 -1.171875 
Q 19.53125 -1.171875 14.328125 2.25 
Q 9.125 5.671875 6.265625 11.796875 
Q 3.421875 17.921875 3.421875 25.875 
Q 3.421875 33.640625 6 39.96875 
Q 8.59375 46.296875 13.765625 49.65625 
Q 18.953125 53.03125 25.34375 53.03125 
Q 30.03125 53.03125 33.6875 51.046875 
Q 37.359375 49.078125 39.65625 45.90625 
L 39.65625 71.578125 
L 48.390625 71.578125 
L 48.390625 0 
z
M 12.453125 25.875 
Q 12.453125 15.921875 16.640625 10.984375 
Q 20.84375 6.0625 26.5625 6.0625 
Q 32.328125 6.0625 36.34375 10.765625 
Q 40.375 15.484375 40.375 25.140625 
Q 40.375 35.796875 36.265625 40.765625 
Q 32.171875 45.75 26.171875 45.75 
Q 20.3125 45.75 16.375 40.96875 
Q 12.453125 36.1875 12.453125 25.875 
z
" id="ArialMT-64"/>
     </defs>
     <g style="fill:#262626;" transform="translate(94.6 85.920437)scale(0.1 -0.1)">
      <use xlink:href="#ArialMT-53"/>
      <use x="66.699219" xlink:href="#ArialMT-65"/>
      <use x="122.314453" xlink:href="#ArialMT-63"/>
      <use x="172.314453" xlink:href="#ArialMT-6f"/>
      <use x="227.929688" xlink:href="#ArialMT-6e"/>
      <use x="283.544922" xlink:href="#ArialMT-64"/>
      <use x="339.160156" xlink:href="#ArialMT-20"/>
      <use x="366.943359" xlink:href="#ArialMT-44"/>
      <use x="439.160156" xlink:href="#ArialMT-65"/>
      <use x="494.775391" xlink:href="#ArialMT-72"/>
      <use x="528.076172" xlink:href="#ArialMT-69"/>
      <use x="550.292969" xlink:href="#ArialMT-76"/>
      <use x="600.292969" xlink:href="#ArialMT-61"/>
      <use x="655.908203" xlink:href="#ArialMT-74"/>
      <use x="683.691406" xlink:href="#ArialMT-69"/>
      <use x="705.908203" xlink:href="#ArialMT-76"/>
      <use x="755.908203" xlink:href="#ArialMT-65"/>
     </g>
    </g>
   </g>
  </g>
 </g>
 <defs>
  <clipPath id="p82d29648fe">
   <rect height="266.112" width="357.12" x="57.6" y="41.472"/>
  </clipPath>
 </defs>
</svg>
